<?xml version="1.0" encoding="utf-8"?>
<!-- Generator: Adobe Illustrator 23.0.6, SVG Export Plug-In . SVG Version: 6.00 Build 0)  -->
<svg version="1.1" id="Capa_1" xmlns="http://www.w3.org/2000/svg" xmlns:xlink="http://www.w3.org/1999/xlink" x="0px" y="0px"
	 viewBox="0 0 1400 980" style="enable-background:new 0 0 1400 980;" xml:space="preserve">
<style type="text/css">
	.st0{fill:#030104;}
	.st1{fill:#060307;}
</style>
<g>
	<g>
		<path class="st0" d="M16.8,27.6c-6.7-7.1-13-16-16.8-16.3v27.4c10.6,0,20.9-0.1,23.7-0.1C29.9,38.6,24.3,35.6,16.8,27.6z"/>
		<path class="st0" d="M1398.8,11.6c-2.8,1.8-8.2,7.9-14.3,14c-6.1,6.1-12.8,12-11.8,12.5s14.4,0.6,27.4,0.6V11.3
			C1399.6,11.3,1399.1,11.4,1398.8,11.6z"/>
		<path class="st0" d="M1375.7,47.7c-11.2,0-49.2-0.5-52.9,0c-3.7,0.5,0-2,5-6c4.7-3.8,16.2-13.5,26.8-21
			c10.6-7.5,26.8-16.5,21.8-16.5s-53.5-3-74-4s-113.9,5.5-130.7,5.5s-28-3.5-40.4-4s-73.4,0-68.4,3.5s30.5,20.5,36.7,25
			s17.4,9.5,9.3,10s-51,1-57.2,1.5s-67.2,1.5-64.1-1c3.1-2.5,36.7-27.5,41.7-30s1.9-2.5-33.6-4.5s-70.9,0-95.2-0.5
			s-92.7,4.5-113.9,5s-62.8,0-55.4,4c7.5,4,48.5,28.5,46.7,29.5c-1.9,1-9.3,3-36.1,2s-64.1-0.5-89,1s-29.9,1-26.1-1.5
			c3.7-2.5,9.3-5.5,12.4-7c3.1-1.5,26.1-19,32.4-22.5c6.2-3.5,14.3-11,10-11c-4.4,0-62.2-4.5-104.5-4.5s-97.7,4.5-127.6,4.5
			s-73.4-2-70.3,1.5c3.1,3.5,51.6,35,47.9,35.5s-42.3,1-72.2,2.5s-70.3-2-69.7-3.5c0.6-1.5,47.3-33,52.3-36s-39.2-2-67.8-3.5
			C241,0.2,152,4.2,129,6.2S20.1,6.7,22,8.2c1.7,1.4,35.9,29.4,44,34.5c8.1,5-4.4,4-13.1,3.5c-5.5-0.3-32.3,0.4-52.9,0.9v5.3
			c1.7-0.1,3-0.2,3.7-0.2c8.1-1,48.5-1,48.5-1c5.5,1.1,34.8,0,35.5-2c1.1-3.5-3.7-3.5-10-8.5c-6.2-5-41.1-27.5-34.2-27
			c6.8,0.5,39.8,1,66,0.5c26.1-0.5,90.2-3.5,110.8-4.5c20.5-1,101.4-2.5,97.7,0s-34.2,24.5-42.3,30c-8.1,5.5-10.6,7.5,0,8
			s56.6,5,77.2,4c20.5-1,76.5-2,86.5-2s7.5-1,1.9-5.5s-20.5-18-27.4-22c-6.8-4-18.7-12-10-10.5s48.5,0,82.1-1s96.4-3.5,118.2-2.5
			s66,0.5,61.6,3s-36.1,25-43.6,31s-10,7-3.7,9.5c6.2,2.5,18.7,2,37.3,1c18.7-1,46-0.5,74.7,0c28.6,0.5,51.6-3.5,56-3.5
			s6.8-2.5,4.4-4c-2.5-1.5-40.4-28-45.4-29s21.2-1.5,35.5-1s94-1.5,112-2s97.1-1,105.2-1.5c8.1-0.5,19.3,0.5,15.6,3
			s-32.4,25-36.7,27.5c-4.4,2.5-6.2,6.5,1.9,6c27.6-1.6,50-1,66,0c26.7,1.6,53.5-2.2,80.3-2c1.4,0,6.1,0.1,6.7-1.5
			c0.4-0.9-0.3-2.1-2.4-3.5c-5-3.5-44.8-30.5-49.8-33s29.9,0.5,41.1,0.5s29.9,3.5,46.7,4c16.8,0.5,86.5-4.5,105.2-5s87.1-1,86.5,0.5
			s-10,10-20.5,17.5s-33,26.5-26.1,27c6.2,0.5,70.2,0.5,87.7-0.3v-5.3C1388.2,47.4,1378.5,47.7,1375.7,47.7z"/>
		<path class="st0" d="M1377,67.2c0,0-99.6,0.5-96.4-3c3.1-3.5,41.1-35.9,47.3-38.5c6.2-2.6,7.5-3.5-30.5-2s-102.7,5-125.1,3
			s-51.6-8-46.7-3c5,5,29.9,23.5,41.7,31c11.8,7.5,12.4,9-5.6,9.5s-100.2,2-115.7,2s-115.1,0-112.6-2.5s39.8-32.5,44.2-37.5
			s-78.4,0.5-112.6,1.5c-34.2,1-80.9-5-78.4-1s49.8,37,45.4,37c-4.4,0-52.3,4-80.9,4c-28.6,0-35.5-1.5-49.2-2.5s-127.6,1-122.6-2
			s49.8-40,54.1-42.5c4.4-2.5-65.3,1.5-107,2.5s-82.1-0.5-87.1-0.5s-1.9,2.5,4.4,5.5c13.3,6.4,45.4,38.5,41.1,38.5
			s-95.8,2.5-131.3,1s-126.8-1-122.6-4.5s51.6-36.5,47.3-37c-4.4-0.5-64.1-0.5-94,1s-81.5,2.5-92.7,1.5s-6.2,1,2.5,8
			s35.5,28,32.4,28.5s-14.9,0.5-34.8,0c-22.1-0.6-63.6,0-91.5,0.9v6.4c21.1-0.7,52.4-1.8,69.7-1.8c0,0,27.4-1,42.9,0
			c15.6,1,32.4,2.5,31.1-0.5c-1.2-3-9.3-12-14.3-16s-24.9-18.5-24.9-18.5s8.1,0,27.4,0s59.1-0.5,70.3-2s62.8-4.5,60.4-2
			c-2.5,2.5-13.7,11.5-29.2,22c-15.6,10.5-23.6,13.5-16.8,16.5s51,2.5,62.8,1s71.6,3.5,80.9,3s97.1-0.5,105.2-1s31.1,0,29.9-2.5
			s-3.1-9.5-11.8-17.5c-8.7-8-19.3-20.5-24.3-23.5s8.1,0,24.3,0.5c16.2,0.5,54.1,0,66.6-1.5c12.4-1.5,69.7-6.5,67.8-4
			s-34.8,29-44.8,37s-6.2,7-0.6,8.5c5.6,1.5,107.6,1,121.3-0.5s37.3,3.5,58.5,4s81.5-4,89-3.5s3.7-2.5,0.6-5.5c-3.1-3-8.7-9.5-18-16
			s-26.1-18-19.3-17.5s70.9,2,84.6,1.5c13.7-0.5,77.8-6,75.9-3.5c-1.9,2.5-22.4,17.5-29.9,24s-18,14-11.8,15.5s108.3,4.5,126.3,4.5
			s126.9-6,133.8-6.5c6.8-0.5,8.1,0,4.4-5s-47.3-32.5-42.9-31.5s28,1.5,45.4,3s54.1-0.5,70.3-2.5c16.2-2,50.4-3.5,52.3-2.5
			s-10.6,10-25.5,22s-21.2,20-16.2,21s39.2,3,50.4,3.5c11.2,0.5,57.2-1.5,57.2-1.5c2.3,0,10.4-0.3,21.1-0.7v-6.2
			C1390.2,66.5,1382,66.8,1377,67.2z"/>
		<path class="st0" d="M1379.5,82.7c0,0-123.8-2.5-128.8-2.5s3.7-7,10.6-14c6.8-7,23-23.5,19.9-24.5s-38.6,1.5-56,2
			s-46.7-4-42.9,0.5c3.7,4.5,23.6,22,33,30.5c9.3,8.5-2.5,4.5-13.7,5s-123.2,5-138.1,3s-37.3-3.5-55.4-3.5c-18,0-109.9,2.3-106.4-2
			s28.6-33.5,32.4-37c3.7-3.5-44.8,1.5-59.7,1s-48.5-3-45.4,1s44.2,38,41.1,39c-3.1,1-49.2,2-80.9,3s-61.6-2.5-74.7-2.5
			c-13.1,0-98.3-1-127.6-2c-29.2-1-42.3,3.5-36.1-3.5s27.4-33.5,31.1-36c3.7-2.5-34.2,2-59.7,1s-42.3-4-36.1,1.5s39.2,37.5,35.5,39
			s-95.8,1.5-126.9,1s-90.8-1-108.9-1s-90.2-0.5-86.5-3.5c12.3-9.9,39.8-36,33-36s-69.1,3-87.1,1.5s-15.6-2.5-10.6,3
			s36.7,34.5,33.6,34.5s-51.6,0-78.4-0.5s-49.2,0.5-49.2,0.5c-11.1,0.9-27,1.1-40.5,1.2v5.8c15.2,0.2,33.8,0.3,39.2,0
			c0,0,40.4-1.5,57.2-0.5s73.4-1,79-1s5-1-5-12.5s-28.6-25.5-24.3-25.5c4.4,0,28.6,2,38,1c9.3-1,31.1-2,36.7-1.5
			c5.6,0.5-3.1,6-6.8,10.5s-26.8,23.5-24.3,25s16.8,3.5,22.4,3.5s62.2,0.5,74.7-0.5c12.4-1,70.3,3.5,80.3,2s94.6-1,105.8-1
			c11.2,0,54.8,0.5,54.8-1.5s-1.2-6.5-6.2-13S495.5,44.7,498,44.7s10,0,28.6,1.5c18.6,1.5,35.5,0,41.7-1.5s-5.6,9-9.3,14
			s-25.3,26.4-18.7,26.5c9.3,0.2,74,2,101.4,0s59.1,3,85.2,3.5c26.1,0.5,69.1,0,108.3-1s40.4-3,44.2-4c3.7-1-1.9-7-5.6-9.5
			c-3.7-2.5-29.2-25-31.7-27.5s11.2,1,34.2,0.5s45.4-1,45.4-1s-6.8,11-21.2,24c-14.3,13-10.6,15-5.6,15s87.7,1,117-1
			c29.2-2,52.9,5,73.4,4s133.2-1,139.4-1.5c6.2-0.5,0.6-7-2.5-11S1193,47.2,1193,47.2s20.5,3,35.5,2.5c14.9-0.5,42.9-5.5,41.1-3
			c-1.9,2.5-13.1,17-19.3,23c-6.2,6-16.6,15.4-8.1,16s64.7,1.5,88.4,2c23.6,0.5,49.2,0,49.2,0c2.9,0.2,11,0.4,20.5,0.5v-5.8
			C1391.5,82.5,1384.1,82.5,1379.5,82.7z"/>
		<path class="st0" d="M354.1,4.6c-2.3-1.7-23.6,26-26.1,28.5s11.8,2,22.4,2.5s30.5-0.5,33.6-0.5s-8.1-11.5-12.4-15
			C367.1,16.6,360.3,9.1,354.1,4.6z"/>
		<path class="st0" d="M700,8.6c1.6,1.5,4.4,6,13.1,13.5c8.7,7.5,16.8,12.5,13.1,13s-15.6,0-26.1,0.5c-10.6,0.5-22.4,0-25.5-1
			c-1.3-0.4,3.9-5.5,8.7-11C690.2,15.7,698.2,6.8,700,8.6z"/>
		<path class="st0" d="M1049.7,6.6c-3,4-21.8,21.5-24.3,23.5s25.5,2,29.2,2s21.2,1.5,18.7-2C1070.9,26.6,1051.6,4.1,1049.7,6.6z"/>
		<path class="st0" d="M1233.9,83.2c-3,1.7-19.9-23.5-21.2-26.5c-1.2-3,12.4,1,26.8-0.5c14.3-1.5,18-2,14.3,1.5
			C1250.1,61.2,1238.2,80.7,1233.9,83.2z"/>
		<path class="st0" d="M884.8,78.7c1.4,2.3,21.2-21,22.4-23s-10-1.5-19.9-0.5c-10,1-20.5-2.5-23-1C861.8,55.7,882.9,75.7,884.8,78.7
			z"/>
		<path class="st0" d="M532,78.2c3.1,1,21.2-20.5,23-23c1.9-2.5-38.6-3.5-41.1-2C511.5,54.7,528.9,77.2,532,78.2z"/>
		<path class="st0" d="M182.3,79.2c2.9,0.9,22.4-21.5,24.9-23s-41.1-4-43.6-2C161.2,56.2,177.3,77.7,182.3,79.2z"/>
	</g>
	<g>
		<path class="st0" d="M16.8,178.1c-6.7-7.2-13.1-16-16.8-16.3v27.4c10.6,0,20.9-0.1,23.7-0.1C29.9,189.1,24.3,186.1,16.8,178.1z"/>
		<path class="st0" d="M1398.8,162c-2.8,1.8-8.2,7.9-14.3,14c-6.1,6.1-12.8,12-11.8,12.5s14.4,0.6,27.4,0.6v-27.4
			C1399.6,161.7,1399.1,161.8,1398.8,162z"/>
		<path class="st0" d="M1375.7,198.1c-11.2,0-49.2-0.5-52.9,0c-3.7,0.5,0-2,5-6c4.7-3.8,16.2-13.5,26.8-21
			c10.6-7.5,26.8-16.5,21.8-16.5s-53.5-3-74-4s-113.9,5.5-130.7,5.5s-28-3.5-40.4-4s-73.4,0-68.4,3.5s30.5,20.5,36.7,25
			s17.4,9.5,9.3,10s-51,1-57.2,1.5s-67.2,1.5-64.1-1c3.1-2.5,36.7-27.5,41.7-30s1.9-2.5-33.6-4.5s-70.9,0-95.2-0.5
			s-92.7,4.5-113.9,5s-62.8,0-55.4,4c7.5,4,48.5,28.5,46.7,29.5c-1.9,1-9.3,3-36.1,2s-64.1-0.5-89,1s-29.9,1-26.1-1.5
			c3.7-2.5,9.3-5.5,12.4-7s26.1-19,32.4-22.5c6.2-3.5,14.3-11,10-11c-4.4,0-62.2-4.5-104.5-4.5s-97.7,4.5-127.6,4.5
			s-73.4-2-70.3,1.5c3.1,3.5,51.6,35,47.9,35.5s-42.3,1-72.2,2.5s-70.3-2-69.7-3.5c0.6-1.5,47.3-33,52.3-36s-39.2-2-67.8-3.5
			c-28.6-1.5-117.6,2.5-140.6,4.5s-108.9,0.5-107,2c1.9,1.5,36.1,29.5,44.2,34.5s-4.4,4-13.1,3.5c-5.5-0.3-32.3,0.4-52.9,0.9v5.3
			c1.7-0.1,3-0.2,3.7-0.2c8.1-1,48.5-1,48.5-1c5.5,1.1,34.8,0,35.5-2c1.1-3.5-3.7-3.5-10-8.5c-6.2-5-41.1-27.5-34.2-27
			c6.8,0.5,39.8,1,66,0.5c26.1-0.5,90.2-3.5,110.8-4.5c20.5-1,101.4-2.5,97.7,0s-34.2,24.5-42.3,30c-8.1,5.5-10.6,7.5,0,8
			s56.6,5,77.2,4c20.5-1,76.5-2,86.5-2s7.5-1,1.9-5.5s-20.5-18-27.4-22c-6.8-4-18.7-12-10-10.5s48.5,0,82.1-1s96.4-3.5,118.2-2.5
			s66,0.5,61.6,3s-36.1,25-43.6,31s-10,7-3.7,9.5c6.2,2.5,18.7,2,37.3,1c18.7-1,46-0.5,74.7,0c28.6,0.5,51.6-3.5,56-3.5
			s6.8-2.5,4.4-4c-2.5-1.5-40.4-28-45.4-29s21.2-1.5,35.5-1s94-1.5,112-2s97.1-1,105.2-1.5c8.1-0.5,19.3,0.5,15.6,3
			s-32.4,25-36.7,27.5c-4.4,2.5-6.2,6.5,1.9,6c27.6-1.6,50-1,66,0c26.7,1.6,53.5-2.2,80.3-2c1.4,0,6.1,0.1,6.7-1.5
			c0.4-0.9-0.3-2.1-2.4-3.5c-5-3.5-44.8-30.5-49.8-33s29.9,0.5,41.1,0.5s29.9,3.5,46.7,4c16.8,0.5,86.5-4.5,105.2-5s87.1-1,86.5,0.5
			s-10,10-20.5,17.5s-33,26.5-26.1,27c6.2,0.5,70.2,0.5,87.7-0.3v-5.3C1388.2,197.8,1378.5,198.1,1375.7,198.1z"/>
		<path class="st0" d="M1377,217.6c0,0-99.6,0.5-96.4-3c3.1-3.5,41.1-35.9,47.3-38.5c6.2-2.6,7.5-3.5-30.5-2s-102.7,5-125.1,3
			s-51.6-8-46.7-3c5,5,29.9,23.5,41.7,31c11.8,7.5,12.4,9-5.6,9.5s-100.2,2-115.7,2s-115.1,0-112.6-2.5s39.8-32.5,44.2-37.5
			s-78.4,0.5-112.6,1.5c-34.2,1-80.9-5-78.4-1s49.8,37,45.4,37c-4.4,0-52.3,4-80.9,4c-28.6,0-35.5-1.5-49.2-2.5s-127.6,1-122.6-2
			s49.8-40,54.1-42.5c4.4-2.5-65.3,1.5-107,2.5s-82.1-0.5-87.1-0.5s-1.9,2.5,4.4,5.5c13.3,6.4,45.4,38.5,41.1,38.5
			s-95.8,2.5-131.3,1s-126.8-1-122.6-4.5s51.6-36.5,47.3-37c-4.4-0.5-64.1-0.5-94,1s-81.5,2.5-92.7,1.5s-6.2,1,2.5,8
			s35.5,28,32.4,28.5s-14.9,0.5-34.8,0c-22.1-0.6-63.6,0-91.5,0.9v6.4c21.1-0.7,52.4-1.8,69.7-1.8c0,0,27.4-1,42.9,0
			c15.6,1,32.4,2.5,31.1-0.5c-1.2-3-9.3-12-14.3-16s-24.9-18.5-24.9-18.5s8.1,0,27.4,0s59.1-0.5,70.3-2s62.8-4.5,60.4-2
			c-2.5,2.5-13.7,11.5-29.2,22c-15.6,10.5-23.6,13.5-16.8,16.5s51,2.5,62.8,1s71.6,3.5,80.9,3s97.1-0.5,105.2-1s31.1,0,29.9-2.5
			s-3.1-9.5-11.8-17.5c-8.7-8-19.3-20.5-24.3-23.5s8.1,0,24.3,0.5c16.2,0.5,54.1,0,66.6-1.5c12.4-1.5,69.7-6.5,67.8-4
			s-34.8,29-44.8,37s-6.2,7-0.6,8.5c5.6,1.5,107.6,1,121.3-0.5s37.3,3.5,58.5,4s81.5-4,89-3.5s3.7-2.5,0.6-5.5c-3.1-3-8.7-9.5-18-16
			s-26.1-18-19.3-17.5s70.9,2,84.6,1.5c13.7-0.5,77.8-6,75.9-3.5c-1.9,2.5-22.4,17.5-29.9,24s-18,14-11.8,15.5s108.3,4.5,126.3,4.5
			s126.9-6,133.8-6.5c6.8-0.5,8.1,0,4.4-5s-47.3-32.5-42.9-31.5s28,1.5,45.4,3s54.1-0.5,70.3-2.5c16.2-2,50.4-3.5,52.3-2.5
			s-10.6,10-25.5,22s-21.2,20-16.2,21s39.2,3,50.4,3.5c11.2,0.5,57.2-1.5,57.2-1.5c2.3,0,10.4-0.3,21.1-0.7v-6.2
			C1390.2,217,1382,217.2,1377,217.6z"/>
		<path class="st0" d="M1379.5,233.1c0,0-123.8-2.5-128.8-2.5s3.7-7,10.6-14c6.8-7,23-23.5,19.9-24.5s-38.6,1.5-56,2
			s-46.7-4-42.9,0.5c3.7,4.5,23.6,22,33,30.5c9.3,8.5-2.5,4.5-13.7,5s-123.2,5-138.1,3s-37.3-3.5-55.4-3.5c-18,0-109.9,2.3-106.4-2
			s28.6-33.5,32.4-37c3.7-3.5-44.8,1.5-59.7,1s-48.5-3-45.4,1s44.2,38,41.1,39c-3.1,1-49.2,2-80.9,3s-61.6-2.5-74.7-2.5
			c-13.1,0-98.3-1-127.6-2c-29.2-1-42.3,3.5-36.1-3.5s27.4-33.5,31.1-36c3.7-2.5-34.2,2-59.7,1s-42.3-4-36.1,1.5
			c6.2,5.5,39.2,37.5,35.5,39s-95.8,1.5-126.9,1s-90.8-1-108.9-1s-90.2-0.5-86.5-3.5c12.3-9.9,39.8-36,33-36s-69.1,3-87.1,1.5
			s-15.6-2.5-10.6,3s36.7,34.5,33.6,34.5s-51.6,0-78.4-0.5s-49.2,0.5-49.2,0.5c-11.1,0.9-27,1.1-40.5,1.2v5.8
			c15.2,0.2,33.8,0.3,39.2,0c0,0,40.4-1.5,57.2-0.5s73.4-1,79-1s5-1-5-12.5s-28.6-25.5-24.3-25.5c4.4,0,28.6,2,38,1
			c9.3-1,31.1-2,36.7-1.5c5.6,0.5-3.1,6-6.8,10.5s-26.8,23.5-24.3,25s16.8,3.5,22.4,3.5s62.2,0.5,74.7-0.5c12.4-1,70.3,3.5,80.3,2
			s94.6-1,105.8-1c11.2,0,54.8,0.5,54.8-1.5s-1.2-6.5-6.2-13s-26.1-28.5-23.6-28.5s10,0,28.6,1.5c18.6,1.5,35.5,0,41.7-1.5
			s-5.6,9-9.3,14s-25.3,26.4-18.7,26.5c9.3,0.2,74,2,101.4,0s59.1,3,85.2,3.5c26.1,0.5,69.1,0,108.3-1s40.4-3,44.2-4
			c3.7-1-1.9-7-5.6-9.5c-3.7-2.5-29.2-25-31.7-27.5s11.2,1,34.2,0.5s45.4-1,45.4-1s-6.8,11-21.2,24c-14.3,13-10.6,15-5.6,15
			s87.7,1,117-1c29.2-2,52.9,5,73.4,4s133.2-1,139.4-1.5c6.2-0.5,0.6-7-2.5-11s-29.2-28.5-29.2-28.5s20.5,3,35.5,2.5
			c14.9-0.5,42.9-5.5,41.1-3c-1.9,2.5-13.1,17-19.3,23c-6.2,6-16.6,15.4-8.1,16s64.7,1.5,88.4,2c23.6,0.5,49.2,0,49.2,0
			c2.9,0.2,11,0.4,20.5,0.5v-5.8C1391.5,232.9,1384.1,232.9,1379.5,233.1z"/>
		<path class="st0" d="M354.1,155c-2.3-1.7-23.6,26-26.1,28.5s11.8,2,22.4,2.5s30.5-0.5,33.6-0.5s-8.1-11.5-12.4-15
			C367.1,167,360.3,159.5,354.1,155z"/>
		<path class="st0" d="M700,159c1.6,1.5,4.4,6,13.1,13.5c8.7,7.5,16.8,12.5,13.1,13s-15.6,0-26.1,0.5c-10.6,0.5-22.4,0-25.5-1
			c-1.3-0.4,3.9-5.5,8.7-11C690.2,166.2,698.2,157.3,700,159z"/>
		<path class="st0" d="M1049.7,157c-3,4-21.8,21.5-24.3,23.5s25.5,2,29.2,2s21.2,1.5,18.7-2C1070.9,177.1,1051.6,154.5,1049.7,157z"
			/>
		<path class="st0" d="M1233.9,233.6c-3,1.7-19.9-23.5-21.2-26.5c-1.2-3,12.4,1,26.8-0.5c14.3-1.5,18-2,14.3,1.5
			C1250.1,211.6,1238.2,231.1,1233.9,233.6z"/>
		<path class="st0" d="M884.8,229.1c1.4,2.3,21.2-21,22.4-23s-10-1.5-19.9-0.5c-10,1-20.5-2.5-23-1S882.9,226.1,884.8,229.1z"/>
		<path class="st0" d="M532,228.6c3.1,1,21.2-20.5,23-23c1.9-2.5-38.6-3.5-41.1-2C511.5,205.1,528.9,227.6,532,228.6z"/>
		<path class="st0" d="M182.3,229.6c2.9,0.9,22.4-21.5,24.9-23s-41.1-4-43.6-2C161.2,206.6,177.3,228.1,182.3,229.6z"/>
	</g>
	<g>
		<g>
			<path class="st1" d="M175,118.4c-14.5,4.8-28.3,9.3-42.5,14c-0.5-2.7-0.8-4.3-1.1-5.8c-0.2-1.3-0.5-2.6-0.8-4.2
				c-1.8-0.4-3.4-1-5-1c-13.9-0.1-27.9-0.1-41.8-0.1c-10.3,0-20.7,0.4-31-0.3c-8.9-0.6-16.4,1.5-23.4,6.8
				c-6.6,4.9-13.6,9.3-19.7,13.4c-2.2-0.6-3.4-1.6-4.3-2.8c3.5-2.7,8.8-3.8,12.4-6.3c1.5-1.1,0-3.6-1.5-2.5
				c-3.6,2.6-8.4,3.7-12.1,6.1c-0.6-1.8-1.1-3.7-2.6-5c0.4-0.3,0.8-0.5,1.2-0.8c0.1,0,0.2,0,0.4,0c5-1.5,9.5-4.1,14.2-6.2
				c1.9-0.9,0.3-3.6-1.7-2.8c-4,1.8-7.7,3.8-11.8,5.3c-1.4-0.2-2.5-0.3-3.9-0.5c1.6-0.9,3.3-1.6,5.1-2c1.9-0.4,1.1-3.2-0.8-2.8
				c-1.1,0.2-2.1,0.6-3.2,1c0.4-1.4,0.5-2.8,0.5-4.1H14c1.9,0,1.9-2.9,0-2.9H1.4c-0.1-1.9,1.5-2.4,2.6-3c1.2,0,2.3,0.2,3.4,0.4
				c1.9,0.4,2.7-2.4,0.8-2.8c-1.2-0.3-2.4-0.4-3.6-0.5c-0.3-0.9,0-2,0.4-3.2c4.1,1,7.6,3.5,11.3,5.4c1.7,0.9,3.2-1.7,1.5-2.5
				c-3.9-2-7.5-4.4-11.6-5.5c0,0,0-0.1,0.1-0.1c1.5-2.9,3.8-3.4,7-1.8c8.6,4.5,17.2,9,26,13.1c3.2,1.5,6.8,2.8,10.3,2.9
				c23.4,0.8,46.9,1.3,70.3,1.7c11.2,0.2,11.2-0.1,12.8-10.6C140.1,107.2,168.7,113.7,175,118.4z M135.5,126.9
				c10.4-1.4,18.9-5.7,28-8.3c0-0.8-0.1-1.6-0.1-2.4c-7.4-1.8-14.9-3.7-22.3-5.4c-2.9-0.7-5.2,0.4-5.4,3.5
				C135.3,118.2,135.5,122.1,135.5,126.9z"/>
		</g>
		<g>
			<path class="st1" d="M350,118.4c-14.5,4.8-28.3,9.3-42.5,14c-0.5-2.7-0.8-4.3-1.1-5.8c-0.2-1.3-0.5-2.6-0.8-4.2
				c-1.8-0.4-3.4-1-5-1c-13.9-0.1-27.9-0.1-41.8-0.1c-10.3,0-20.7,0.4-31-0.3c-8.9-0.6-16.4,1.5-23.4,6.8
				c-6.6,4.9-13.6,9.3-19.7,13.4c-2.2-0.6-3.4-1.6-4.3-2.8c3.5-2.7,8.8-3.8,12.4-6.3c1.5-1.1,0-3.6-1.5-2.5
				c-3.6,2.6-8.4,3.7-12.1,6.1c-0.6-1.8-1.1-3.7-2.6-5c0.4-0.3,0.8-0.5,1.2-0.8c0.1,0,0.2,0,0.4,0c5-1.5,9.5-4.1,14.2-6.2
				c1.9-0.9,0.3-3.6-1.7-2.8c-4,1.8-7.7,3.8-11.8,5.3c-1.4-0.2-2.5-0.3-3.9-0.5c1.6-0.9,3.3-1.6,5.1-2c1.9-0.4,1.1-3.2-0.8-2.8
				c-1.1,0.2-2.1,0.6-3.2,1c0.4-1.4,0.5-2.8,0.5-4.1H189c1.9,0,1.9-2.9,0-2.9h-12.5c-0.1-1.9,1.5-2.4,2.6-3c1.2,0,2.3,0.2,3.4,0.4
				c1.9,0.4,2.7-2.4,0.8-2.8c-1.2-0.3-2.4-0.4-3.6-0.5c-0.3-0.9,0-2,0.4-3.2c4.1,1,7.6,3.5,11.3,5.4c1.7,0.9,3.2-1.7,1.5-2.5
				c-3.9-2-7.5-4.4-11.6-5.5c0,0,0-0.1,0.1-0.1c1.5-2.9,3.8-3.4,7-1.8c8.6,4.5,17.2,9,26,13.1c3.2,1.5,6.8,2.8,10.3,2.9
				c23.4,0.8,46.9,1.3,70.3,1.7c11.2,0.2,11.2-0.1,12.8-10.6C315.1,107.2,343.7,113.7,350,118.4z M310.5,126.9
				c10.4-1.4,18.9-5.7,28-8.3c0-0.8-0.1-1.6-0.1-2.4c-7.4-1.8-14.9-3.7-22.3-5.4c-2.9-0.7-5.2,0.4-5.4,3.5
				C310.3,118.2,310.5,122.1,310.5,126.9z"/>
		</g>
		<g>
			<path class="st1" d="M525,118.4c-14.5,4.8-28.3,9.3-42.5,14c-0.5-2.7-0.8-4.3-1.1-5.8c-0.2-1.3-0.5-2.6-0.8-4.2
				c-1.8-0.4-3.4-1-5-1c-13.9-0.1-27.9-0.1-41.8-0.1c-10.3,0-20.7,0.4-31-0.3c-8.9-0.6-16.4,1.5-23.4,6.8
				c-6.6,4.9-13.6,9.3-19.7,13.4c-2.2-0.6-3.4-1.6-4.3-2.8c3.5-2.7,8.8-3.8,12.4-6.3c1.5-1.1,0-3.6-1.5-2.5
				c-3.6,2.6-8.4,3.7-12.1,6.1c-0.6-1.8-1.1-3.7-2.6-5c0.4-0.3,0.8-0.5,1.2-0.8c0.1,0,0.2,0,0.4,0c5-1.5,9.5-4.1,14.2-6.2
				c1.9-0.9,0.3-3.6-1.7-2.8c-4,1.8-7.7,3.8-11.8,5.3c-1.4-0.2-2.5-0.3-3.9-0.5c1.6-0.9,3.3-1.6,5.1-2c1.9-0.4,1.1-3.2-0.8-2.8
				c-1.1,0.2-2.1,0.6-3.2,1c0.4-1.4,0.5-2.8,0.5-4.1H364c1.9,0,1.9-2.9,0-2.9h-12.5c-0.1-1.9,1.5-2.4,2.6-3c1.2,0,2.3,0.2,3.4,0.4
				c1.9,0.4,2.7-2.4,0.8-2.8c-1.2-0.3-2.4-0.4-3.6-0.5c-0.3-0.9,0-2,0.4-3.2c4.1,1,7.6,3.5,11.3,5.4c1.7,0.9,3.2-1.7,1.5-2.5
				c-3.9-2-7.5-4.4-11.6-5.5c0,0,0-0.1,0.1-0.1c1.5-2.9,3.8-3.4,7-1.8c8.6,4.5,17.2,9,26,13.1c3.2,1.5,6.8,2.8,10.3,2.9
				c23.4,0.8,46.9,1.3,70.3,1.7c11.2,0.2,11.2-0.1,12.8-10.6C490.1,107.2,518.7,113.7,525,118.4z M485.5,126.9
				c10.4-1.4,18.9-5.7,28-8.3c0-0.8-0.1-1.6-0.1-2.4c-7.4-1.8-14.9-3.7-22.3-5.4c-2.9-0.7-5.2,0.4-5.4,3.5
				C485.3,118.2,485.5,122.1,485.5,126.9z"/>
		</g>
		<g>
			<path class="st1" d="M700,118.4c-14.5,4.8-28.3,9.3-42.5,14c-0.5-2.7-0.8-4.3-1.1-5.8c-0.2-1.3-0.5-2.6-0.8-4.2
				c-1.8-0.4-3.4-1-5-1c-13.9-0.1-27.9-0.1-41.8-0.1c-10.3,0-20.7,0.4-31-0.3c-8.9-0.6-16.4,1.5-23.4,6.8
				c-6.6,4.9-13.6,9.3-19.7,13.4c-2.2-0.6-3.4-1.6-4.3-2.8c3.5-2.7,8.8-3.8,12.4-6.3c1.5-1.1,0-3.6-1.5-2.5
				c-3.6,2.6-8.4,3.7-12.1,6.1c-0.6-1.8-1.1-3.7-2.6-5c0.4-0.3,0.8-0.5,1.2-0.8c0.1,0,0.2,0,0.4,0c5-1.5,9.5-4.1,14.2-6.2
				c1.9-0.9,0.3-3.6-1.7-2.8c-4,1.8-7.7,3.8-11.8,5.3c-1.4-0.2-2.5-0.3-3.9-0.5c1.6-0.9,3.3-1.6,5.1-2c1.9-0.4,1.1-3.2-0.8-2.8
				c-1.1,0.2-2.1,0.6-3.2,1c0.4-1.4,0.5-2.8,0.5-4.1H539c1.9,0,1.9-2.9,0-2.9h-12.5c-0.1-1.9,1.5-2.4,2.6-3c1.2,0,2.3,0.2,3.4,0.4
				c1.9,0.4,2.7-2.4,0.8-2.8c-1.2-0.3-2.4-0.4-3.6-0.5c-0.3-0.9,0-2,0.4-3.2c4.1,1,7.6,3.5,11.3,5.4c1.7,0.9,3.2-1.7,1.5-2.5
				c-3.9-2-7.5-4.4-11.6-5.5c0,0,0-0.1,0.1-0.1c1.5-2.9,3.8-3.4,7-1.8c8.6,4.5,17.2,9,26,13.1c3.2,1.5,6.8,2.8,10.3,2.9
				c23.4,0.8,46.9,1.3,70.3,1.7c11.2,0.2,11.2-0.1,12.8-10.6C665.1,107.2,693.7,113.7,700,118.4z M660.5,126.9
				c10.4-1.4,18.9-5.7,28-8.3c0-0.8-0.1-1.6-0.1-2.4c-7.4-1.8-14.9-3.7-22.3-5.4c-2.9-0.7-5.2,0.4-5.4,3.5
				C660.3,118.2,660.5,122.1,660.5,126.9z"/>
		</g>
		<g>
			<path class="st1" d="M875,118.4c-14.5,4.8-28.3,9.3-42.5,14c-0.5-2.7-0.8-4.3-1.1-5.8c-0.2-1.3-0.5-2.6-0.8-4.2
				c-1.8-0.4-3.4-1-5-1c-13.9-0.1-27.9-0.1-41.8-0.1c-10.3,0-20.7,0.4-31-0.3c-8.9-0.6-16.4,1.5-23.4,6.8
				c-6.6,4.9-13.6,9.3-19.7,13.4c-2.2-0.6-3.4-1.6-4.3-2.8c3.5-2.7,8.8-3.8,12.4-6.3c1.5-1.1,0-3.6-1.5-2.5
				c-3.6,2.6-8.4,3.7-12.1,6.1c-0.6-1.8-1.1-3.7-2.6-5c0.4-0.3,0.8-0.5,1.2-0.8c0.1,0,0.2,0,0.4,0c5-1.5,9.5-4.1,14.2-6.2
				c1.9-0.9,0.3-3.6-1.7-2.8c-4,1.8-7.7,3.8-11.8,5.3c-1.4-0.2-2.5-0.3-3.9-0.5c1.6-0.9,3.3-1.6,5.1-2c1.9-0.4,1.1-3.2-0.8-2.8
				c-1.1,0.2-2.1,0.6-3.2,1c0.4-1.4,0.5-2.8,0.5-4.1H714c1.9,0,1.9-2.9,0-2.9h-12.5c-0.1-1.9,1.5-2.4,2.6-3c1.2,0,2.3,0.2,3.4,0.4
				c1.9,0.4,2.7-2.4,0.8-2.8c-1.2-0.3-2.4-0.4-3.6-0.5c-0.3-0.9,0-2,0.4-3.2c4.1,1,7.6,3.5,11.3,5.4c1.7,0.9,3.2-1.7,1.5-2.5
				c-3.9-2-7.5-4.4-11.6-5.5c0,0,0-0.1,0.1-0.1c1.5-2.9,3.8-3.4,7-1.8c8.6,4.5,17.2,9,26,13.1c3.2,1.5,6.8,2.8,10.3,2.9
				c23.4,0.8,46.9,1.3,70.3,1.7c11.2,0.2,11.2-0.1,12.8-10.6C840.1,107.2,868.7,113.7,875,118.4z M835.5,126.9
				c10.4-1.4,18.9-5.7,28-8.3c0-0.8-0.1-1.6-0.1-2.4c-7.4-1.8-14.9-3.7-22.3-5.4c-2.9-0.7-5.2,0.4-5.4,3.5
				C835.3,118.2,835.5,122.1,835.5,126.9z"/>
		</g>
		<g>
			<path class="st1" d="M1050,118.4c-14.5,4.8-28.3,9.3-42.5,14c-0.5-2.7-0.8-4.3-1.1-5.8c-0.2-1.3-0.5-2.6-0.8-4.2
				c-1.8-0.4-3.4-1-5-1c-13.9-0.1-27.9-0.1-41.8-0.1c-10.3,0-20.7,0.4-31-0.3c-8.9-0.6-16.4,1.5-23.4,6.8
				c-6.6,4.9-13.6,9.3-19.7,13.4c-2.2-0.6-3.4-1.6-4.3-2.8c3.5-2.7,8.8-3.8,12.4-6.3c1.5-1.1,0-3.6-1.5-2.5
				c-3.6,2.6-8.4,3.7-12.1,6.1c-0.6-1.8-1.1-3.7-2.6-5c0.4-0.3,0.8-0.5,1.2-0.8c0.1,0,0.2,0,0.4,0c5-1.5,9.5-4.1,14.2-6.2
				c1.9-0.9,0.3-3.6-1.7-2.8c-4,1.8-7.7,3.8-11.8,5.3c-1.4-0.2-2.5-0.3-3.9-0.5c1.6-0.9,3.3-1.6,5.1-2c1.9-0.4,1.1-3.2-0.8-2.8
				c-1.1,0.2-2.1,0.6-3.2,1c0.4-1.4,0.5-2.8,0.5-4.1H889c1.9,0,1.9-2.9,0-2.9h-12.5c-0.1-1.9,1.5-2.4,2.6-3c1.2,0,2.3,0.2,3.4,0.4
				c1.9,0.4,2.7-2.4,0.8-2.8c-1.2-0.3-2.4-0.4-3.6-0.5c-0.3-0.9,0-2,0.4-3.2c4.1,1,7.6,3.5,11.3,5.4c1.7,0.9,3.2-1.7,1.5-2.5
				c-3.9-2-7.5-4.4-11.6-5.5c0,0,0-0.1,0.1-0.1c1.5-2.9,3.8-3.4,7-1.8c8.6,4.5,17.2,9,26,13.1c3.2,1.5,6.8,2.8,10.3,2.9
				c23.4,0.8,46.9,1.3,70.3,1.7c11.2,0.2,11.2-0.1,12.8-10.6C1015.1,107.2,1043.7,113.7,1050,118.4z M1010.5,126.9
				c10.4-1.4,18.9-5.7,28-8.3c0-0.8-0.1-1.6-0.1-2.4c-7.4-1.8-14.9-3.7-22.3-5.4c-2.9-0.7-5.2,0.4-5.4,3.5
				C1010.3,118.2,1010.5,122.1,1010.5,126.9z"/>
		</g>
		<g>
			<path class="st1" d="M1225,118.4c-14.5,4.8-28.3,9.3-42.5,14c-0.5-2.7-0.8-4.3-1.1-5.8c-0.2-1.3-0.5-2.6-0.8-4.2
				c-1.8-0.4-3.4-1-5-1c-13.9-0.1-27.9-0.1-41.8-0.1c-10.3,0-20.7,0.4-31-0.3c-8.9-0.6-16.4,1.5-23.4,6.8
				c-6.6,4.9-13.6,9.3-19.7,13.4c-2.2-0.6-3.4-1.6-4.3-2.8c3.5-2.7,8.8-3.8,12.4-6.3c1.5-1.1,0-3.6-1.5-2.5
				c-3.6,2.6-8.4,3.7-12.1,6.1c-0.6-1.8-1.1-3.7-2.6-5c0.4-0.3,0.8-0.5,1.2-0.8c0.1,0,0.2,0,0.4,0c5-1.5,9.5-4.1,14.2-6.2
				c1.9-0.9,0.3-3.6-1.7-2.8c-4,1.8-7.7,3.8-11.8,5.3c-1.4-0.2-2.5-0.3-3.9-0.5c1.6-0.9,3.3-1.6,5.1-2c1.9-0.4,1.1-3.2-0.8-2.8
				c-1.1,0.2-2.1,0.6-3.2,1c0.4-1.4,0.5-2.8,0.5-4.1h12.3c1.9,0,1.9-2.9,0-2.9h-12.5c-0.1-1.9,1.5-2.4,2.6-3c1.2,0,2.3,0.2,3.4,0.4
				c1.9,0.4,2.7-2.4,0.8-2.8c-1.2-0.3-2.4-0.4-3.6-0.5c-0.3-0.9,0-2,0.4-3.2c4.1,1,7.6,3.5,11.3,5.4c1.7,0.9,3.2-1.7,1.5-2.5
				c-3.9-2-7.5-4.4-11.6-5.5c0,0,0-0.1,0.1-0.1c1.5-2.9,3.8-3.4,7-1.8c8.6,4.5,17.2,9,26,13.1c3.2,1.5,6.8,2.8,10.3,2.9
				c23.4,0.8,46.9,1.3,70.3,1.7c11.2,0.2,11.2-0.1,12.8-10.6C1190.1,107.2,1218.7,113.7,1225,118.4z M1185.5,126.9
				c10.4-1.4,18.9-5.7,28-8.3c0-0.8-0.1-1.6-0.1-2.4c-7.4-1.8-14.9-3.7-22.3-5.4c-2.9-0.7-5.2,0.4-5.4,3.5
				C1185.3,118.2,1185.5,122.1,1185.5,126.9z"/>
		</g>
		<g>
			<path class="st1" d="M1400,118.4c-14.5,4.8-28.3,9.3-42.5,14c-0.5-2.7-0.8-4.3-1.1-5.8c-0.2-1.3-0.5-2.6-0.8-4.2
				c-1.8-0.4-3.4-1-5-1c-13.9-0.1-27.9-0.1-41.8-0.1c-10.3,0-20.7,0.4-31-0.3c-8.9-0.6-16.4,1.5-23.4,6.8
				c-6.6,4.9-13.6,9.3-19.7,13.4c-2.2-0.6-3.4-1.6-4.3-2.8c3.5-2.7,8.8-3.8,12.4-6.3c1.5-1.1,0-3.6-1.5-2.5
				c-3.6,2.6-8.4,3.7-12.1,6.1c-0.6-1.8-1.1-3.7-2.6-5c0.4-0.3,0.8-0.5,1.2-0.8c0.1,0,0.2,0,0.4,0c5-1.5,9.5-4.1,14.2-6.2
				c1.9-0.9,0.3-3.6-1.7-2.8c-4,1.8-7.7,3.8-11.8,5.3c-1.4-0.2-2.5-0.3-3.9-0.5c1.6-0.9,3.3-1.6,5.1-2c1.9-0.4,1.1-3.2-0.8-2.8
				c-1.1,0.2-2.1,0.6-3.2,1c0.4-1.4,0.5-2.8,0.5-4.1h12.3c1.9,0,1.9-2.9,0-2.9h-12.5c-0.1-1.9,1.5-2.4,2.6-3c1.2,0,2.3,0.2,3.4,0.4
				c1.9,0.4,2.7-2.4,0.8-2.8c-1.2-0.3-2.4-0.4-3.6-0.5c-0.3-0.9,0-2,0.4-3.2c4.1,1,7.6,3.5,11.3,5.4c1.7,0.9,3.2-1.7,1.5-2.5
				c-3.9-2-7.5-4.4-11.6-5.5c0,0,0-0.1,0.1-0.1c1.5-2.9,3.8-3.4,7-1.8c8.6,4.5,17.2,9,26,13.1c3.2,1.5,6.8,2.8,10.3,2.9
				c23.4,0.8,46.9,1.3,70.3,1.7c11.2,0.2,11.2-0.1,12.8-10.6C1365.1,107.2,1393.7,113.7,1400,118.4z M1360.5,126.9
				c10.4-1.4,18.9-5.7,28-8.3c0-0.8-0.1-1.6-0.1-2.4c-7.4-1.8-14.9-3.7-22.3-5.4c-2.9-0.7-5.2,0.4-5.4,3.5
				C1360.3,118.2,1360.5,122.1,1360.5,126.9z"/>
		</g>
	</g>
</g>
<g>
	<path class="st0" d="M16.8,274.5c-6.7-7.2-13.1-16-16.8-16.3v27.4c10.6,0,20.9-0.1,23.7-0.1C29.9,285.5,24.3,282.5,16.8,274.5z"/>
	<path class="st0" d="M1398.8,258.5c-2.8,1.8-8.2,7.9-14.3,14c-6.1,6.1-12.8,12-11.8,12.5s14.4,0.6,27.4,0.6v-27.4
		C1399.6,258.2,1399.1,258.2,1398.8,258.5z"/>
	<path class="st0" d="M1375.7,294.5c-11.2,0-49.2-0.5-52.9,0c-3.7,0.5,0-2,5-6c4.7-3.8,16.2-13.5,26.8-21
		c10.6-7.5,26.8-16.5,21.8-16.5s-53.5-3-74-4s-113.9,5.5-130.7,5.5s-28-3.5-40.4-4s-73.4,0-68.4,3.5s30.5,20.5,36.7,25
		s17.4,9.5,9.3,10s-51,1-57.2,1.5s-67.2,1.5-64.1-1c3.1-2.5,36.7-27.5,41.7-30s1.9-2.5-33.6-4.5s-70.9,0-95.2-0.5s-92.7,4.5-113.9,5
		s-62.8,0-55.4,4c7.5,4,48.5,28.5,46.7,29.5c-1.9,1-9.3,3-36.1,2s-64.1-0.5-89,1s-29.9,1-26.1-1.5c3.7-2.5,9.3-5.5,12.4-7
		c3.1-1.5,26.1-19,32.4-22.5c6.2-3.5,14.3-11,10-11c-4.4,0-62.2-4.5-104.5-4.5s-97.7,4.5-127.6,4.5s-73.4-2-70.3,1.5
		c3.1,3.5,51.6,35,47.9,35.5s-42.3,1-72.2,2.5s-70.3-2-69.7-3.5c0.6-1.5,47.3-33,52.3-36s-39.2-2-67.8-3.5C241,247,152,251,129,253
		s-108.9,0.5-107,2c1.9,1.5,36.1,29.5,44.2,34.5s-4.4,4-13.1,3.5c-5.5-0.3-32.3,0.4-52.9,0.9v5.3c1.7-0.1,3-0.2,3.7-0.2
		c8.1-1,48.5-1,48.5-1c5.5,1.1,34.8,0,35.5-2c1.1-3.5-3.7-3.5-10-8.5c-6.2-5-41.1-27.5-34.2-27c6.8,0.5,39.8,1,66,0.5
		c26.1-0.5,90.2-3.5,110.8-4.5c20.5-1,101.4-2.5,97.7,0s-34.2,24.5-42.3,30c-8.1,5.5-10.6,7.5,0,8s56.6,5,77.2,4
		c20.5-1,76.5-2,86.5-2s7.5-1,1.9-5.5s-20.5-18-27.4-22c-6.8-4-18.7-12-10-10.5s48.5,0,82.1-1s96.4-3.5,118.2-2.5s66,0.5,61.6,3
		s-36.1,25-43.6,31s-10,7-3.7,9.5c6.2,2.5,18.7,2,37.3,1c18.7-1,46-0.5,74.7,0c28.6,0.5,51.6-3.5,56-3.5s6.8-2.5,4.4-4
		c-2.5-1.5-40.4-28-45.4-29s21.2-1.5,35.5-1s94-1.5,112-2s97.1-1,105.2-1.5c8.1-0.5,19.3,0.5,15.6,3s-32.4,25-36.7,27.5
		c-4.4,2.5-6.2,6.5,1.9,6c27.6-1.6,50-1,66,0c26.7,1.6,53.5-2.2,80.3-2c1.4,0,6.1,0.1,6.7-1.5c0.4-0.9-0.3-2.1-2.4-3.5
		c-5-3.5-44.8-30.5-49.8-33s29.9,0.5,41.1,0.5s29.9,3.5,46.7,4c16.8,0.5,86.5-4.5,105.2-5s87.1-1,86.5,0.5s-10,10-20.5,17.5
		s-33,26.5-26.1,27c6.2,0.5,70.2,0.5,87.7-0.3v-5.3C1388.2,294.2,1378.5,294.5,1375.7,294.5z"/>
	<path class="st0" d="M1377,314c0,0-99.6,0.5-96.4-3c3.1-3.5,41.1-35.9,47.3-38.5c6.2-2.6,7.5-3.5-30.5-2s-102.7,5-125.1,3
		s-51.6-8-46.7-3c5,5,29.9,23.5,41.7,31c11.8,7.5,12.4,9-5.6,9.5s-100.2,2-115.7,2s-115.1,0-112.6-2.5s39.8-32.5,44.2-37.5
		s-78.4,0.5-112.6,1.5c-34.2,1-80.9-5-78.4-1s49.8,37,45.4,37c-4.4,0-52.3,4-80.9,4c-28.6,0-35.5-1.5-49.2-2.5s-127.6,1-122.6-2
		s49.8-40,54.1-42.5c4.4-2.5-65.3,1.5-107,2.5s-82.1-0.5-87.1-0.5s-1.9,2.5,4.4,5.5c13.3,6.4,45.4,38.5,41.1,38.5s-95.8,2.5-131.3,1
		s-126.8-1-122.6-4.5s51.6-36.5,47.3-37c-4.4-0.5-64.1-0.5-94,1s-81.5,2.5-92.7,1.5s-6.2,1,2.5,8s35.5,28,32.4,28.5
		s-14.9,0.5-34.8,0c-22.1-0.6-63.6,0-91.5,0.9v6.4c21.1-0.7,52.4-1.8,69.7-1.8c0,0,27.4-1,42.9,0c15.6,1,32.4,2.5,31.1-0.5
		c-1.2-3-9.3-12-14.3-16s-24.9-18.5-24.9-18.5s8.1,0,27.4,0s59.1-0.5,70.3-2c11.2-1.5,62.8-4.5,60.4-2c-2.5,2.5-13.7,11.5-29.2,22
		c-15.7,10.5-23.8,13.5-17,16.5s51,2.5,62.8,1s71.6,3.5,80.9,3s97.1-0.5,105.2-1c8.1-0.5,31.1,0,29.9-2.5s-3.1-9.5-11.8-17.5
		c-8.7-8-19.3-20.5-24.3-23.5s8.1,0,24.3,0.5c16.2,0.5,54.1,0,66.6-1.5c12.4-1.5,69.7-6.5,67.8-4s-34.8,29-44.8,37s-6.2,7-0.6,8.5
		c5.6,1.5,107.6,1,121.3-0.5s37.3,3.5,58.5,4s81.5-4,89-3.5s3.7-2.5,0.6-5.5c-3.1-3-8.7-9.5-18-16s-26.1-18-19.3-17.5
		s70.9,2,84.6,1.5c13.7-0.5,77.8-6,75.9-3.5c-1.9,2.5-22.4,17.5-29.9,24s-18,14-11.8,15.5s108.3,4.5,126.3,4.5s126.9-6,133.8-6.5
		c6.8-0.5,8.1,0,4.4-5S1140.6,276,1145,277s28,1.5,45.4,3s54.1-0.5,70.3-2.5c16.2-2,50.4-3.5,52.3-2.5s-10.6,10-25.5,22
		s-21.2,20-16.2,21s39.2,3,50.4,3.5c11.2,0.5,57.2-1.5,57.2-1.5c2.3,0,10.4-0.3,21.1-0.7v-6.2C1390.2,313.4,1382,313.6,1377,314z"/>
	<path class="st0" d="M1379.5,329.6c0,0-123.8-2.5-128.8-2.5s3.7-7,10.6-14c6.8-7,23-23.5,19.9-24.5s-38.6,1.5-56,2
		s-46.7-4-42.9,0.5c3.7,4.5,23.6,22,33,30.5c9.3,8.5-2.5,4.5-13.7,5s-123.2,5-138.1,3s-37.3-3.5-55.4-3.5c-18,0-109.9,2.3-106.4-2
		s28.6-33.5,32.4-37c3.7-3.5-44.8,1.5-59.7,1s-48.5-3-45.4,1s44.2,38,41.1,39c-3.1,1-49.2,2-80.9,3s-61.6-2.5-74.7-2.5
		c-13.1,0-98.3-1-127.6-2c-29.2-1-42.3,3.5-36.1-3.5s27.4-33.5,31.1-36c3.7-2.5-34.2,2-59.7,1s-42.3-4-36.1,1.5s39.2,37.5,35.5,39
		s-95.8,1.5-126.9,1s-90.8-1-108.9-1s-90.2-0.5-86.5-3.5c12.3-9.9,39.8-36,33-36s-69.1,3-87.1,1.5s-15.6-2.5-10.6,3
		s36.7,34.5,33.6,34.5s-51.6,0-78.4-0.5C62.9,327,40.5,328,40.5,328c-11.1,0.9-27,1.1-40.5,1.2v5.8c15.2,0.2,33.8,0.3,39.2,0
		c0,0,40.4-1.5,57.2-0.5s73.4-1,79-1s5-1-5-12.5s-28.6-25.5-24.3-25.5c4.4,0,28.6,2,38,1c9.3-1,31.1-2,36.7-1.5
		c5.6,0.5-3.1,6-6.8,10.5s-26.8,23.5-24.3,25s16.8,3.5,22.4,3.5s62.2,0.5,74.7-0.5c12.4-1,70.3,3.5,80.3,2s94.6-1,105.8-1
		c11.2,0,54.8,0.5,54.8-1.5s-1.2-6.5-6.2-13s-26.1-28.5-23.6-28.5s10,0,28.6,1.5c18.7,1.5,35.5,0,41.7-1.5s-5.6,9-9.3,14
		s-25.3,26.4-18.7,26.5c9.3,0.2,74,2,101.4,0s59.1,3,85.2,3.5c26.1,0.5,69.1,0,108.3-1s40.4-3,44.2-4c3.7-1-1.9-7-5.6-9.5
		c-3.7-2.5-29.2-25-31.7-27.5s11.2,1,34.2,0.5s45.4-1,45.4-1s-6.8,11-21.2,24c-14.3,13-10.6,15-5.6,15s87.7,1,117-1
		c29.2-2,52.9,5,73.4,4s133.2-1,139.4-1.5c6.2-0.5,0.6-7-2.5-11s-29.2-28.5-29.2-28.5s20.5,3,35.5,2.5c14.9-0.5,42.9-5.5,41.1-3
		c-1.9,2.5-13.1,17-19.3,23c-6.2,6-16.6,15.4-8.1,16s64.7,1.5,88.4,2c23.6,0.5,49.2,0,49.2,0c2.9,0.2,11,0.4,20.5,0.5v-5.8
		C1391.5,329.3,1384.1,329.4,1379.5,329.6z"/>
	<path class="st0" d="M354.1,251.5c-2.3-1.7-23.6,26-26.1,28.5s11.8,2,22.4,2.5s30.5-0.5,33.6-0.5s-8.1-11.5-12.4-15
		C367.1,263.5,360.3,256,354.1,251.5z"/>
	<path class="st0" d="M700,255.5c1.6,1.5,4.4,6,13.1,13.5c8.7,7.5,16.8,12.5,13.1,13s-15.6,0-26.1,0.5c-10.6,0.5-22.4,0-25.5-1
		c-1.3-0.4,3.9-5.5,8.7-11C690.2,262.6,698.2,253.7,700,255.5z"/>
	<path class="st0" d="M1049.7,253.5c-3,4-21.8,21.5-24.3,23.5s25.5,2,29.2,2s21.2,1.5,18.7-2C1070.9,273.5,1051.6,251,1049.7,253.5z
		"/>
	<path class="st0" d="M1233.9,330.1c-3,1.7-19.9-23.5-21.2-26.5c-1.2-3,12.4,1,26.8-0.5c14.3-1.5,18-2,14.3,1.5
		C1250.1,308,1238.2,327.5,1233.9,330.1z"/>
	<path class="st0" d="M884.8,325.5c1.4,2.3,21.2-21,22.4-23s-10-1.5-19.9-0.5c-10,1-20.5-2.5-23-1S882.9,322.5,884.8,325.5z"/>
	<path class="st0" d="M532,325c3.1,1,21.2-20.5,23-23c1.9-2.5-38.6-3.5-41.1-2C511.5,301.5,528.9,324,532,325z"/>
	<path class="st0" d="M182.3,326c2.9,0.9,22.4-21.5,24.9-23s-41.1-4-43.6-2C161.2,303,177.3,324.5,182.3,326z"/>
</g>
<g>
	<path class="st0" d="M1383.2,424.9c6.7-7.2,13.1-16,16.8-16.3V436c-10.6,0-20.9-0.1-23.7-0.1
		C1370.1,435.9,1375.7,432.9,1383.2,424.9z"/>
	<path class="st0" d="M1.2,408.9c2.8,1.8,8.2,7.9,14.3,14s12.8,12,11.8,12.5S12.9,436-0.1,436v-27.4C0.4,408.6,0.9,408.7,1.2,408.9z
		"/>
	<path class="st0" d="M24.3,444.9c11.2,0,49.2-0.5,52.9,0s0-2-5-6c-4.7-3.8-16.2-13.5-26.8-21s-26.8-16.5-21.8-16.5s53.5-3,74-4
		s113.9,5.5,130.7,5.5s28-3.5,40.4-4s73.4,0,68.4,3.5s-30.5,20.5-36.7,25s-17.4,9.5-9.3,10s51,1,57.2,1.5s67.2,1.5,64.1-1
		s-36.7-27.5-41.7-30s-1.9-2.5,33.6-4.5s70.9,0,95.2-0.5c24.3-0.5,92.7,4.5,113.9,5s62.8,0,55.4,4c-7.5,4-48.5,28.5-46.7,29.5
		c1.9,1,9.3,3,36.1,2s64.1-0.5,89,1s29.9,1,26.1-1.5c-3.7-2.5-9.3-5.5-12.4-7c-3.1-1.5-26.1-19-32.4-22.5c-6.2-3.5-14.3-11-10-11
		c4.4,0,62.2-4.5,104.5-4.5s97.7,4.5,127.6,4.5c29.9,0,73.4-2,70.3,1.5c-3.1,3.5-51.6,35-47.9,35.5c3.7,0.5,42.3,1,72.2,2.5
		c29.9,1.5,70.3-2,69.7-3.5c-0.6-1.5-47.3-33-52.3-36s39.2-2,67.8-3.5c28.6-1.5,117.6,2.5,140.6,4.5s108.9,0.5,107,2
		s-36.1,29.5-44.2,34.5s4.4,4,13.1,3.5c5.5-0.3,32.3,0.4,52.9,0.9v5.3c-1.7-0.1-3-0.2-3.7-0.2c-8.1-1-48.5-1-48.5-1
		c-5.5,1.1-34.8,0-35.5-2c-1.1-3.5,3.7-3.5,10-8.5c6.2-5,41.1-27.5,34.2-27c-6.8,0.5-39.8,1-66,0.5c-26.1-0.5-90.2-3.5-110.8-4.5
		c-20.5-1-101.4-2.5-97.7,0s34.2,24.5,42.3,30c8.1,5.5,10.6,7.5,0,8s-56.6,5-77.2,4c-20.5-1-76.5-2-86.5-2s-7.5-1-1.9-5.5
		s20.5-18,27.4-22c6.8-4,18.7-12,10-10.5s-48.5,0-82.1-1s-96.4-3.5-118.2-2.5s-66,0.5-61.6,3s36.1,25,43.6,31s10,7,3.7,9.5
		c-6.2,2.5-18.7,2-37.3,1c-18.7-1-46-0.5-74.7,0c-28.6,0.5-51.6-3.5-56-3.5s-6.8-2.5-4.4-4c2.5-1.5,40.4-28,45.4-29
		s-21.2-1.5-35.5-1s-94-1.5-112-2s-97.1-1-105.2-1.5s-19.3,0.5-15.6,3c3.7,2.5,32.4,25,36.7,27.5c4.4,2.5,6.2,6.5-1.9,6
		c-27.6-1.6-50-1-66,0c-26.7,1.6-53.5-2.2-80.3-2c-1.4,0-6.1,0.1-6.7-1.5c-0.4-0.9,0.3-2.1,2.4-3.5c5-3.5,44.8-30.5,49.8-33
		s-29.9,0.5-41.1,0.5s-29.9,3.5-46.7,4s-86.5-4.5-105.2-5s-87.1-1-86.5,0.5s10,10,20.5,17.5c10.6,7.5,33,26.5,26.1,27
		c-6.2,0.5-70.2,0.5-87.7-0.3v-5.3C11.8,444.7,21.5,444.9,24.3,444.9z"/>
	<path class="st0" d="M23,464.5c0,0,99.6,0.5,96.4-3c-3.1-3.5-41.1-35.9-47.3-38.5s-7.5-3.5,30.5-2s102.7,5,125.1,3s51.6-8,46.7-3
		c-5,5-29.9,23.5-41.7,31s-12.4,9,5.6,9.5s100.2,2,115.7,2c15.6,0,115.1,0,112.6-2.5s-39.8-32.5-44.2-37.5
		c-4.4-5,78.4,0.5,112.6,1.5s80.9-5,78.4-1s-49.8,37-45.4,37c4.4,0,52.3,4,80.9,4c28.6,0,35.5-1.5,49.2-2.5s127.6,1,122.6-2
		s-49.8-40-54.1-42.5c-4.4-2.5,65.3,1.5,107,2.5s82.1-0.5,87.1-0.5s1.9,2.5-4.4,5.5c-13.3,6.4-45.4,38.5-41.1,38.5s95.8,2.5,131.3,1
		s126.8-1,122.6-4.5c-4.2-3.5-51.6-36.5-47.3-37c4.4-0.5,64.1-0.5,94,1s81.5,2.5,92.7,1.5s6.2,1-2.5,8s-35.5,28-32.4,28.5
		s14.9,0.5,34.8,0c22.1-0.6,63.6,0,91.5,0.9v6.4c-21.1-0.7-52.4-1.8-69.7-1.8c0,0-27.4-1-42.9,0c-15.6,1-32.4,2.5-31.1-0.5
		s9.3-12,14.3-16s24.9-18.5,24.9-18.5s-8.1,0-27.4,0s-59.1-0.5-70.3-2c-11.2-1.5-62.8-4.5-60.4-2c2.5,2.5,13.7,11.5,29.2,22
		c15.6,10.5,23.6,13.5,16.8,16.5c-6.8,3-51,2.5-62.8,1s-71.6,3.5-80.9,3s-97.1-0.5-105.2-1c-8.1-0.5-31.1,0-29.9-2.5
		c1.2-2.5,3.1-9.5,11.8-17.5s19.3-20.5,24.3-23.5s-8.1,0-24.3,0.5s-54.1,0-66.6-1.5c-12.4-1.5-69.7-6.5-67.8-4s34.8,29,44.8,37
		s6.2,7,0.6,8.5c-5.6,1.5-107.6,1-121.3-0.5s-37.3,3.5-58.5,4s-81.5-4-89-3.5s-3.7-2.5-0.6-5.5c3.1-3,8.7-9.5,18-16
		s26.1-18,19.3-17.5s-70.9,2-84.6,1.5c-13.7-0.5-77.8-6-75.9-3.5c1.9,2.5,22.4,17.5,29.9,24s18,14,11.8,15.5s-108.3,4.5-126.3,4.5
		s-126.9-6-133.8-6.5c-6.8-0.5-8.1,0-4.4-5c3.7-5,47.3-32.5,42.9-31.5s-28,1.5-45.4,3s-54.1-0.5-70.3-2.5s-50.4-3.5-52.3-2.5
		s10.6,10,25.5,22s21.2,20,16.2,21s-39.2,3-50.4,3.5s-57.2-1.5-57.2-1.5c-2.3,0-10.4-0.3-21.1-0.7v-6.2C9.8,463.8,18,464.1,23,464.5
		z"/>
	<path class="st0" d="M20.5,480c0,0,123.8-2.5,128.8-2.5s-3.7-7-10.6-14c-6.8-7-23-23.5-19.9-24.5s38.6,1.5,56,2s46.7-4,42.9,0.5
		c-3.7,4.5-23.6,22-33,30.5c-9.3,8.5,2.5,4.5,13.7,5s123.2,5,138.1,3c14.9-2,37.3-3.5,55.4-3.5c18,0,109.9,2.3,106.4-2
		s-28.6-33.5-32.4-37c-3.7-3.5,44.8,1.5,59.7,1c14.9-0.5,48.5-3,45.4,1s-44.2,38-41.1,39c3.1,1,49.2,2,80.9,3s61.6-2.5,74.7-2.5
		c13.1,0,98.3-1,127.6-2c29.2-1,42.3,3.5,36.1-3.5s-27.4-33.5-31.1-36c-3.7-2.5,34.2,2,59.7,1s42.3-4,36.1,1.5s-39.2,37.5-35.5,39
		s95.8,1.5,126.9,1c31.1-0.5,90.8-1,108.9-1s90.2-0.5,86.5-3.5c-12.3-9.9-39.8-36-33-36s69.1,3,87.1,1.5s15.6-2.5,10.6,3
		s-36.7,34.5-33.6,34.5s51.6,0,78.4-0.5s49.2,0.5,49.2,0.5c11.1,0.9,27,1.1,40.5,1.2v5.8c-15.2,0.2-33.8,0.3-39.2,0
		c0,0-40.4-1.5-57.2-0.5c-16.8,1-73.4-1-79-1s-5-1,5-12.5s28.6-25.5,24.3-25.5c-4.4,0-28.6,2-38,1c-9.3-1-31.1-2-36.7-1.5
		s3.1,6,6.8,10.5c3.7,4.5,26.8,23.5,24.3,25s-16.8,3.5-22.4,3.5s-62.2,0.5-74.7-0.5c-12.4-1-70.3,3.5-80.3,2s-94.6-1-105.8-1
		s-54.8,0.5-54.8-1.5s1.2-6.5,6.2-13S904.5,442,902,442s-10,0-28.6,1.5c-18.7,1.5-35.5,0-41.7-1.5s5.6,9,9.3,14s25.3,26.4,18.7,26.5
		c-9.3,0.2-74,2-101.4,0s-59.1,3-85.2,3.5c-26.1,0.5-69.1,0-108.3-1s-40.4-3-44.2-4c-3.7-1,1.9-7,5.6-9.5c3.7-2.5,29.2-25,31.7-27.5
		s-11.2,1-34.2,0.5s-45.4-1-45.4-1s6.8,11,21.2,24c14.3,13,10.6,15,5.6,15s-87.7,1-117-1c-29.2-2-52.9,5-73.4,4s-133.2-1-139.4-1.5
		s-0.6-7,2.5-11s29.2-28.5,29.2-28.5s-20.5,3-35.5,2.5c-14.9-0.5-42.9-5.5-41.1-3c1.9,2.5,13.1,17,19.3,23s16.6,15.4,8.1,16
		s-64.7,1.5-88.4,2c-23.6,0.5-49.2,0-49.2,0c-2.9,0.2-11,0.4-20.5,0.5v-5.8C8.5,479.7,15.9,479.8,20.5,480z"/>
	<path class="st0" d="M1045.9,401.9c2.3-1.7,23.6,26,26.1,28.5s-11.8,2-22.4,2.5s-30.5-0.5-33.6-0.5s8.1-11.5,12.4-15
		S1039.7,406.4,1045.9,401.9z"/>
	<path class="st0" d="M700,405.9c-1.6,1.5-4.4,6-13.1,13.5c-8.7,7.5-16.8,12.5-13.1,13s15.6,0,26.1,0.5c10.6,0.5,22.4,0,25.5-1
		c1.3-0.4-3.9-5.5-8.7-11C709.8,413,701.8,404.1,700,405.9z"/>
	<path class="st0" d="M350.3,403.9c3,4,21.8,21.5,24.3,23.5s-25.5,2-29.2,2s-21.2,1.5-18.7-2C329.1,423.9,348.4,401.4,350.3,403.9z"
		/>
	<path class="st0" d="M166.1,480.5c3,1.7,19.9-23.5,21.2-26.5c1.2-3-12.4,1-26.8-0.5c-14.3-1.5-18-2-14.3,1.5S161.8,478,166.1,480.5
		z"/>
	<path class="st0" d="M515.2,476c-1.4,2.3-21.2-21-22.4-23c-1.2-2,10-1.5,19.9-0.5c10,1,20.5-2.5,23-1
		C538.2,452.9,517.1,473,515.2,476z"/>
	<path class="st0" d="M868,475.5c-3.1,1-21.2-20.5-23-23c-1.9-2.5,38.6-3.5,41.1-2C888.5,451.9,871.1,474.5,868,475.5z"/>
	<path class="st0" d="M1217.7,476.5c-2.9,0.9-22.4-21.5-24.9-23s41.1-4,43.6-2C1238.8,453.4,1222.7,475,1217.7,476.5z"/>
</g>
<g>
	<g>
		<path class="st1" d="M175,365.2c-14.5,4.8-28.3,9.3-42.5,14c-0.5-2.7-0.8-4.3-1.1-5.8c-0.2-1.3-0.5-2.6-0.8-4.2
			c-1.8-0.4-3.4-1-5-1c-13.9-0.1-27.9-0.1-41.8-0.1c-10.3,0-20.7,0.4-31-0.3c-8.9-0.6-16.4,1.5-23.4,6.8
			c-6.6,4.9-13.6,9.3-19.7,13.4c-2.2-0.6-3.4-1.6-4.3-2.8c3.5-2.7,8.8-3.8,12.4-6.3c1.5-1.1,0-3.6-1.5-2.5
			c-3.6,2.6-8.4,3.7-12.1,6.1c-0.6-1.8-1.1-3.7-2.6-5c0.4-0.3,0.8-0.5,1.2-0.8c0.1,0,0.2,0,0.4,0c5-1.5,9.5-4.1,14.2-6.2
			c1.9-0.9,0.3-3.6-1.7-2.8c-4,1.8-7.7,3.8-11.8,5.3c-1.4-0.2-2.5-0.3-3.9-0.5c1.6-0.9,3.3-1.6,5.1-2c1.9-0.4,1.1-3.2-0.8-2.8
			c-1.1,0.2-2.1,0.6-3.2,1c0.4-1.4,0.5-2.8,0.5-4.1H14c1.9,0,1.9-2.9,0-2.9H1.4c-0.1-1.9,1.5-2.4,2.6-3c1.2,0,2.3,0.2,3.4,0.4
			c1.9,0.4,2.7-2.4,0.8-2.8c-1.2-0.3-2.4-0.4-3.6-0.5c-0.3-0.9,0-2,0.4-3.2c4.1,1,7.6,3.5,11.3,5.4c1.7,0.9,3.2-1.7,1.5-2.5
			c-3.9-2-7.5-4.4-11.6-5.5c0,0,0-0.1,0.1-0.1c1.5-2.9,3.8-3.4,7-1.8c8.6,4.5,17.2,9,26,13.1c3.2,1.5,6.8,2.8,10.3,2.9
			c23.4,0.8,46.9,1.3,70.3,1.7c11.2,0.2,11.2-0.1,12.8-10.6C140.1,354,168.7,360.6,175,365.2z M135.5,373.8
			c10.4-1.4,18.9-5.7,28-8.3c0-0.8-0.1-1.6-0.1-2.4c-7.4-1.8-14.9-3.7-22.3-5.4c-2.9-0.7-5.2,0.4-5.4,3.5
			C135.3,365,135.5,369,135.5,373.8z"/>
	</g>
	<g>
		<path class="st1" d="M350,365.2c-14.5,4.8-28.3,9.3-42.5,14c-0.5-2.7-0.8-4.3-1.1-5.8c-0.2-1.3-0.5-2.6-0.8-4.2
			c-1.8-0.4-3.4-1-5-1c-13.9-0.1-27.9-0.1-41.8-0.1c-10.3,0-20.7,0.4-31-0.3c-8.9-0.6-16.4,1.5-23.4,6.8
			c-6.6,4.9-13.6,9.3-19.7,13.4c-2.2-0.6-3.4-1.6-4.3-2.8c3.5-2.7,8.8-3.8,12.4-6.3c1.5-1.1,0-3.6-1.5-2.5
			c-3.6,2.6-8.4,3.7-12.1,6.1c-0.6-1.8-1.1-3.7-2.6-5c0.4-0.3,0.8-0.5,1.2-0.8c0.1,0,0.2,0,0.4,0c5-1.5,9.5-4.1,14.2-6.2
			c1.9-0.9,0.3-3.6-1.7-2.8c-4,1.8-7.7,3.8-11.8,5.3c-1.4-0.2-2.5-0.3-3.9-0.5c1.6-0.9,3.3-1.6,5.1-2c1.9-0.4,1.1-3.2-0.8-2.8
			c-1.1,0.2-2.1,0.6-3.2,1c0.4-1.4,0.5-2.8,0.5-4.1H189c1.9,0,1.9-2.9,0-2.9h-12.5c-0.1-1.9,1.5-2.4,2.6-3c1.2,0,2.3,0.2,3.4,0.4
			c1.9,0.4,2.7-2.4,0.8-2.8c-1.2-0.3-2.4-0.4-3.6-0.5c-0.3-0.9,0-2,0.4-3.2c4.1,1,7.6,3.5,11.3,5.4c1.7,0.9,3.2-1.7,1.5-2.5
			c-3.9-2-7.5-4.4-11.6-5.5c0,0,0-0.1,0.1-0.1c1.5-2.9,3.8-3.4,7-1.8c8.6,4.5,17.2,9,26,13.1c3.2,1.5,6.8,2.8,10.3,2.9
			c23.4,0.8,46.9,1.3,70.3,1.7c11.2,0.2,11.2-0.1,12.8-10.6C315.1,354,343.7,360.6,350,365.2z M310.5,373.8
			c10.4-1.4,18.9-5.7,28-8.3c0-0.8-0.1-1.6-0.1-2.4c-7.4-1.8-14.9-3.7-22.3-5.4c-2.9-0.7-5.2,0.4-5.4,3.5
			C310.3,365,310.5,369,310.5,373.8z"/>
	</g>
	<g>
		<path class="st1" d="M525,365.2c-14.5,4.8-28.3,9.3-42.5,14c-0.5-2.7-0.8-4.3-1.1-5.8c-0.2-1.3-0.5-2.6-0.8-4.2
			c-1.8-0.4-3.4-1-5-1c-13.9-0.1-27.9-0.1-41.8-0.1c-10.3,0-20.7,0.4-31-0.3c-8.9-0.6-16.4,1.5-23.4,6.8
			c-6.6,4.9-13.6,9.3-19.7,13.4c-2.2-0.6-3.4-1.6-4.3-2.8c3.5-2.7,8.8-3.8,12.4-6.3c1.5-1.1,0-3.6-1.5-2.5
			c-3.6,2.6-8.4,3.7-12.1,6.1c-0.6-1.8-1.1-3.7-2.6-5c0.4-0.3,0.8-0.5,1.2-0.8c0.1,0,0.2,0,0.4,0c5-1.5,9.5-4.1,14.2-6.2
			c1.9-0.9,0.3-3.6-1.7-2.8c-4,1.8-7.7,3.8-11.8,5.3c-1.4-0.2-2.5-0.3-3.9-0.5c1.6-0.9,3.3-1.6,5.1-2c1.9-0.4,1.1-3.2-0.8-2.8
			c-1.1,0.2-2.1,0.6-3.2,1c0.4-1.4,0.5-2.8,0.5-4.1H364c1.9,0,1.9-2.9,0-2.9h-12.5c-0.1-1.9,1.5-2.4,2.6-3c1.2,0,2.3,0.2,3.4,0.4
			c1.9,0.4,2.7-2.4,0.8-2.8c-1.2-0.3-2.4-0.4-3.6-0.5c-0.3-0.9,0-2,0.4-3.2c4.1,1,7.6,3.5,11.3,5.4c1.7,0.9,3.2-1.7,1.5-2.5
			c-3.9-2-7.5-4.4-11.6-5.5c0,0,0-0.1,0.1-0.1c1.5-2.9,3.8-3.4,7-1.8c8.6,4.5,17.2,9,26,13.1c3.2,1.5,6.8,2.8,10.3,2.9
			c23.4,0.8,46.9,1.3,70.3,1.7c11.2,0.2,11.2-0.1,12.8-10.6C490.1,354,518.7,360.6,525,365.2z M485.5,373.8
			c10.4-1.4,18.9-5.7,28-8.3c0-0.8-0.1-1.6-0.1-2.4c-7.4-1.8-14.9-3.7-22.3-5.4c-2.9-0.7-5.2,0.4-5.4,3.5
			C485.3,365,485.5,369,485.5,373.8z"/>
	</g>
	<g>
		<path class="st1" d="M700,365.2c-14.5,4.8-28.3,9.3-42.5,14c-0.5-2.7-0.8-4.3-1.1-5.8c-0.2-1.3-0.5-2.6-0.8-4.2
			c-1.8-0.4-3.4-1-5-1c-13.9-0.1-27.9-0.1-41.8-0.1c-10.3,0-20.7,0.4-31-0.3c-8.9-0.6-16.4,1.5-23.4,6.8
			c-6.6,4.9-13.6,9.3-19.7,13.4c-2.2-0.6-3.4-1.6-4.3-2.8c3.5-2.7,8.8-3.8,12.4-6.3c1.5-1.1,0-3.6-1.5-2.5
			c-3.6,2.6-8.4,3.7-12.1,6.1c-0.6-1.8-1.1-3.7-2.6-5c0.4-0.3,0.8-0.5,1.2-0.8c0.1,0,0.2,0,0.4,0c5-1.5,9.5-4.1,14.2-6.2
			c1.9-0.9,0.3-3.6-1.7-2.8c-4,1.8-7.7,3.8-11.8,5.3c-1.4-0.2-2.5-0.3-3.9-0.5c1.6-0.9,3.3-1.6,5.1-2c1.9-0.4,1.1-3.2-0.8-2.8
			c-1.1,0.2-2.1,0.6-3.2,1c0.4-1.4,0.5-2.8,0.5-4.1H539c1.9,0,1.9-2.9,0-2.9h-12.5c-0.1-1.9,1.5-2.4,2.6-3c1.2,0,2.3,0.2,3.4,0.4
			c1.9,0.4,2.7-2.4,0.8-2.8c-1.2-0.3-2.4-0.4-3.6-0.5c-0.3-0.9,0-2,0.4-3.2c4.1,1,7.6,3.5,11.3,5.4c1.7,0.9,3.2-1.7,1.5-2.5
			c-3.9-2-7.5-4.4-11.6-5.5c0,0,0-0.1,0.1-0.1c1.5-2.9,3.8-3.4,7-1.8c8.6,4.5,17.2,9,26,13.1c3.2,1.5,6.8,2.8,10.3,2.9
			c23.4,0.8,46.9,1.3,70.3,1.7c11.2,0.2,11.2-0.1,12.8-10.6C665.1,354,693.7,360.6,700,365.2z M660.5,373.8
			c10.4-1.4,18.9-5.7,28-8.3c0-0.8-0.1-1.6-0.1-2.4c-7.4-1.8-14.9-3.7-22.3-5.4c-2.9-0.7-5.2,0.4-5.4,3.5
			C660.3,365,660.5,369,660.5,373.8z"/>
	</g>
	<g>
		<path class="st1" d="M875,365.2c-14.5,4.8-28.3,9.3-42.5,14c-0.5-2.7-0.8-4.3-1.1-5.8c-0.2-1.3-0.5-2.6-0.8-4.2
			c-1.8-0.4-3.4-1-5-1c-13.9-0.1-27.9-0.1-41.8-0.1c-10.3,0-20.7,0.4-31-0.3c-8.9-0.6-16.4,1.5-23.4,6.8
			c-6.6,4.9-13.6,9.3-19.7,13.4c-2.2-0.6-3.4-1.6-4.3-2.8c3.5-2.7,8.8-3.8,12.4-6.3c1.5-1.1,0-3.6-1.5-2.5
			c-3.6,2.6-8.4,3.7-12.1,6.1c-0.6-1.8-1.1-3.7-2.6-5c0.4-0.3,0.8-0.5,1.2-0.8c0.1,0,0.2,0,0.4,0c5-1.5,9.5-4.1,14.2-6.2
			c1.9-0.9,0.3-3.6-1.7-2.8c-4,1.8-7.7,3.8-11.8,5.3c-1.4-0.2-2.5-0.3-3.9-0.5c1.6-0.9,3.3-1.6,5.1-2c1.9-0.4,1.1-3.2-0.8-2.8
			c-1.1,0.2-2.1,0.6-3.2,1c0.4-1.4,0.5-2.8,0.5-4.1H714c1.9,0,1.9-2.9,0-2.9h-12.5c-0.1-1.9,1.5-2.4,2.6-3c1.2,0,2.3,0.2,3.4,0.4
			c1.9,0.4,2.7-2.4,0.8-2.8c-1.2-0.3-2.4-0.4-3.6-0.5c-0.3-0.9,0-2,0.4-3.2c4.1,1,7.6,3.5,11.3,5.4c1.7,0.9,3.2-1.7,1.5-2.5
			c-3.9-2-7.5-4.4-11.6-5.5c0,0,0-0.1,0.1-0.1c1.5-2.9,3.8-3.4,7-1.8c8.6,4.5,17.2,9,26,13.1c3.2,1.5,6.8,2.8,10.3,2.9
			c23.4,0.8,46.9,1.3,70.3,1.7c11.2,0.2,11.2-0.1,12.8-10.6C840.1,354,868.7,360.6,875,365.2z M835.5,373.8
			c10.4-1.4,18.9-5.7,28-8.3c0-0.8-0.1-1.6-0.1-2.4c-7.4-1.8-14.9-3.7-22.3-5.4c-2.9-0.7-5.2,0.4-5.4,3.5
			C835.3,365,835.5,369,835.5,373.8z"/>
	</g>
	<g>
		<path class="st1" d="M1050,365.2c-14.5,4.8-28.3,9.3-42.5,14c-0.5-2.7-0.8-4.3-1.1-5.8c-0.2-1.3-0.5-2.6-0.8-4.2
			c-1.8-0.4-3.4-1-5-1c-13.9-0.1-27.9-0.1-41.8-0.1c-10.3,0-20.7,0.4-31-0.3c-8.9-0.6-16.4,1.5-23.4,6.8
			c-6.6,4.9-13.6,9.3-19.7,13.4c-2.2-0.6-3.4-1.6-4.3-2.8c3.5-2.7,8.8-3.8,12.4-6.3c1.5-1.1,0-3.6-1.5-2.5
			c-3.6,2.6-8.4,3.7-12.1,6.1c-0.6-1.8-1.1-3.7-2.6-5c0.4-0.3,0.8-0.5,1.2-0.8c0.1,0,0.2,0,0.4,0c5-1.5,9.5-4.1,14.2-6.2
			c1.9-0.9,0.3-3.6-1.7-2.8c-4,1.8-7.7,3.8-11.8,5.3c-1.4-0.2-2.5-0.3-3.9-0.5c1.6-0.9,3.3-1.6,5.1-2c1.9-0.4,1.1-3.2-0.8-2.8
			c-1.1,0.2-2.1,0.6-3.2,1c0.4-1.4,0.5-2.8,0.5-4.1H889c1.9,0,1.9-2.9,0-2.9h-12.5c-0.1-1.9,1.5-2.4,2.6-3c1.2,0,2.3,0.2,3.4,0.4
			c1.9,0.4,2.7-2.4,0.8-2.8c-1.2-0.3-2.4-0.4-3.6-0.5c-0.3-0.9,0-2,0.4-3.2c4.1,1,7.6,3.5,11.3,5.4c1.7,0.9,3.2-1.7,1.5-2.5
			c-3.9-2-7.5-4.4-11.6-5.5c0,0,0-0.1,0.1-0.1c1.5-2.9,3.8-3.4,7-1.8c8.6,4.5,17.2,9,26,13.1c3.2,1.5,6.8,2.8,10.3,2.9
			c23.4,0.8,46.9,1.3,70.3,1.7c11.2,0.2,11.2-0.1,12.8-10.6C1015.1,354,1043.7,360.6,1050,365.2z M1010.5,373.8
			c10.4-1.4,18.9-5.7,28-8.3c0-0.8-0.1-1.6-0.1-2.4c-7.4-1.8-14.9-3.7-22.3-5.4c-2.9-0.7-5.2,0.4-5.4,3.5
			C1010.3,365,1010.5,369,1010.5,373.8z"/>
	</g>
	<g>
		<path class="st1" d="M1225,365.2c-14.5,4.8-28.3,9.3-42.5,14c-0.5-2.7-0.8-4.3-1.1-5.8c-0.2-1.3-0.5-2.6-0.8-4.2
			c-1.8-0.4-3.4-1-5-1c-13.9-0.1-27.9-0.1-41.8-0.1c-10.3,0-20.7,0.4-31-0.3c-8.9-0.6-16.4,1.5-23.4,6.8
			c-6.6,4.9-13.6,9.3-19.7,13.4c-2.2-0.6-3.4-1.6-4.3-2.8c3.5-2.7,8.8-3.8,12.4-6.3c1.5-1.1,0-3.6-1.5-2.5
			c-3.6,2.6-8.4,3.7-12.1,6.1c-0.6-1.8-1.1-3.7-2.6-5c0.4-0.3,0.8-0.5,1.2-0.8c0.1,0,0.2,0,0.4,0c5-1.5,9.5-4.1,14.2-6.2
			c1.9-0.9,0.3-3.6-1.7-2.8c-4,1.8-7.7,3.8-11.8,5.3c-1.4-0.2-2.5-0.3-3.9-0.5c1.6-0.9,3.3-1.6,5.1-2c1.9-0.4,1.1-3.2-0.8-2.8
			c-1.1,0.2-2.1,0.6-3.2,1c0.4-1.4,0.5-2.8,0.5-4.1h12.3c1.9,0,1.9-2.9,0-2.9h-12.5c-0.1-1.9,1.5-2.4,2.6-3c1.2,0,2.3,0.2,3.4,0.4
			c1.9,0.4,2.7-2.4,0.8-2.8c-1.2-0.3-2.4-0.4-3.6-0.5c-0.3-0.9,0-2,0.4-3.2c4.1,1,7.6,3.5,11.3,5.4c1.7,0.9,3.2-1.7,1.5-2.5
			c-3.9-2-7.5-4.4-11.6-5.5c0,0,0-0.1,0.1-0.1c1.5-2.9,3.8-3.4,7-1.8c8.6,4.5,17.2,9,26,13.1c3.2,1.5,6.8,2.8,10.3,2.9
			c23.4,0.8,46.9,1.3,70.3,1.7c11.2,0.2,11.2-0.1,12.8-10.6C1190.1,354,1218.7,360.6,1225,365.2z M1185.5,373.8
			c10.4-1.4,18.9-5.7,28-8.3c0-0.8-0.1-1.6-0.1-2.4c-7.4-1.8-14.9-3.7-22.3-5.4c-2.9-0.7-5.2,0.4-5.4,3.5
			C1185.3,365,1185.5,369,1185.5,373.8z"/>
	</g>
	<g>
		<path class="st1" d="M1400,365.2c-14.5,4.8-28.3,9.3-42.5,14c-0.5-2.7-0.8-4.3-1.1-5.8c-0.2-1.3-0.5-2.6-0.8-4.2
			c-1.8-0.4-3.4-1-5-1c-13.9-0.1-27.9-0.1-41.8-0.1c-10.3,0-20.7,0.4-31-0.3c-8.9-0.6-16.4,1.5-23.4,6.8
			c-6.6,4.9-13.6,9.3-19.7,13.4c-2.2-0.6-3.4-1.6-4.3-2.8c3.5-2.7,8.8-3.8,12.4-6.3c1.5-1.1,0-3.6-1.5-2.5
			c-3.6,2.6-8.4,3.7-12.1,6.1c-0.6-1.8-1.1-3.7-2.6-5c0.4-0.3,0.8-0.5,1.2-0.8c0.1,0,0.2,0,0.4,0c5-1.5,9.5-4.1,14.2-6.2
			c1.9-0.9,0.3-3.6-1.7-2.8c-4,1.8-7.7,3.8-11.8,5.3c-1.4-0.2-2.5-0.3-3.9-0.5c1.6-0.9,3.3-1.6,5.1-2c1.9-0.4,1.1-3.2-0.8-2.8
			c-1.1,0.2-2.1,0.6-3.2,1c0.4-1.4,0.5-2.8,0.5-4.1h12.3c1.9,0,1.9-2.9,0-2.9h-12.5c-0.1-1.9,1.5-2.4,2.6-3c1.2,0,2.3,0.2,3.4,0.4
			c1.9,0.4,2.7-2.4,0.8-2.8c-1.2-0.3-2.4-0.4-3.6-0.5c-0.3-0.9,0-2,0.4-3.2c4.1,1,7.6,3.5,11.3,5.4c1.7,0.9,3.2-1.7,1.5-2.5
			c-3.9-2-7.5-4.4-11.6-5.5c0,0,0-0.1,0.1-0.1c1.5-2.9,3.8-3.4,7-1.8c8.6,4.5,17.2,9,26,13.1c3.2,1.5,6.8,2.8,10.3,2.9
			c23.4,0.8,46.9,1.3,70.3,1.7c11.2,0.2,11.2-0.1,12.8-10.6C1365.1,354,1393.7,360.6,1400,365.2z M1360.5,373.8
			c10.4-1.4,18.9-5.7,28-8.3c0-0.8-0.1-1.6-0.1-2.4c-7.4-1.8-14.9-3.7-22.3-5.4c-2.9-0.7-5.2,0.4-5.4,3.5
			C1360.3,365,1360.5,369,1360.5,373.8z"/>
	</g>
</g>
<g>
	<path class="st0" d="M1383.2,521.3c6.7-7.2,13.1-16,16.8-16.3v27.4c-10.6,0-20.9-0.1-23.7-0.1
		C1370.1,532.4,1375.7,529.4,1383.2,521.3z"/>
	<path class="st0" d="M1.2,505.3c2.8,1.8,8.2,7.9,14.3,14s12.8,12,11.8,12.5s-14.4,0.6-27.4,0.6L0,505C0.4,505,0.9,505.1,1.2,505.3z
		"/>
	<path class="st0" d="M24.3,541.4c11.2,0,49.2-0.5,52.9,0s0-2-5-6c-4.7-3.8-16.2-13.5-26.8-21s-26.8-16.5-21.8-16.5s53.5-3,74-4
		s113.9,5.5,130.7,5.5s28-3.5,40.4-4s73.4,0,68.4,3.5s-30.5,20.5-36.7,25s-17.4,9.5-9.3,10s51,1,57.2,1.5s67.2,1.5,64.1-1
		s-36.7-27.5-41.7-30s-1.9-2.5,33.6-4.5s70.9,0,95.2-0.5c24.3-0.5,92.7,4.5,113.9,5s62.8,0,55.4,4c-7.5,4-48.5,28.5-46.7,29.5
		c1.9,1,9.3,3,36.1,2s64.1-0.5,89,1s29.9,1,26.1-1.5c-3.7-2.5-9.3-5.5-12.4-7c-3.1-1.5-26.1-19-32.4-22.5c-6.2-3.5-14.3-11-10-11
		c4.4,0,62.2-4.5,104.5-4.5s97.7,4.5,127.6,4.5c29.9,0,73.4-2,70.3,1.5c-3.1,3.5-51.6,35-47.9,35.5s42.3,1,72.2,2.5
		c29.9,1.5,70.3-2,69.7-3.5c-0.6-1.5-47.3-33-52.3-36s39.2-2,67.8-3.5c28.6-1.5,117.6,2.5,140.6,4.5s108.9,0.5,107,2
		s-36.1,29.5-44.2,34.5s4.4,4,13.1,3.5c5.5-0.3,32.3,0.4,52.9,0.9v5.3c-1.7-0.1-3-0.2-3.7-0.2c-8.1-1-48.5-1-48.5-1
		c-5.5,1.1-34.8,0-35.5-2c-1.1-3.5,3.7-3.5,10-8.5c6.2-5,41.1-27.5,34.2-27c-6.8,0.5-39.8,1-66,0.5c-26.1-0.5-90.2-3.5-110.8-4.5
		c-20.5-1-101.4-2.5-97.7,0c3.7,2.5,34.2,24.5,42.3,30c8.1,5.5,10.6,7.5,0,8s-56.6,5-77.2,4c-20.5-1-76.5-2-86.5-2s-7.5-1-1.9-5.5
		s20.5-18,27.4-22c6.8-4,18.7-12,10-10.5s-48.5,0-82.1-1s-96.4-3.5-118.2-2.5s-66,0.5-61.6,3s36.1,25,43.6,31s10,7,3.7,9.5
		c-6.2,2.5-18.7,2-37.3,1c-18.7-1-46-0.5-74.7,0c-28.6,0.5-51.6-3.5-56-3.5s-6.8-2.5-4.4-4c2.5-1.5,40.4-28,45.4-29
		s-21.2-1.5-35.5-1s-94-1.5-112-2s-97.1-1-105.2-1.5s-19.3,0.5-15.6,3c3.7,2.5,32.4,25,36.7,27.5c4.4,2.5,6.2,6.5-1.9,6
		c-27.6-1.6-50-1-66,0c-26.7,1.6-53.5-2.2-80.3-2c-1.4,0-6.1,0.1-6.7-1.5c-0.4-0.9,0.3-2.1,2.4-3.5c5-3.5,44.8-30.5,49.8-33
		s-29.9,0.5-41.1,0.5s-29.9,3.5-46.7,4s-86.5-4.5-105.2-5s-87.1-1-86.5,0.5s10,10,20.5,17.5c10.6,7.5,33,26.5,26.1,27
		c-6.2,0.5-70.2,0.5-87.7-0.3v-5.3C11.8,541.1,21.5,541.4,24.3,541.4z"/>
	<path class="st0" d="M23,560.9c0,0,99.6,0.5,96.4-3c-3.1-3.5-41.1-35.9-47.3-38.5s-7.5-3.5,30.5-2s102.7,5,125.1,3s51.6-8,46.7-3
		c-5,5-29.9,23.5-41.7,31s-12.4,9,5.6,9.5s100.2,2,115.7,2c15.6,0,115.1,0,112.6-2.5s-39.8-32.5-44.2-37.5
		c-4.4-5,78.4,0.5,112.6,1.5s80.9-5,78.4-1s-49.8,37-45.4,37c4.4,0,52.3,4,80.9,4c28.6,0,35.5-1.5,49.2-2.5s127.6,1,122.6-2
		s-49.8-40-54.1-42.5c-4.4-2.5,65.3,1.5,107,2.5s82.1-0.5,87.1-0.5s1.9,2.5-4.4,5.5c-13.3,6.4-45.4,38.5-41.1,38.5s95.8,2.5,131.3,1
		s126.8-1,122.6-4.5c-4.2-3.5-51.6-36.5-47.3-37c4.4-0.5,64.1-0.5,94,1s81.5,2.5,92.7,1.5s6.2,1-2.5,8s-35.5,28-32.4,28.5
		s14.9,0.5,34.8,0c22.1-0.6,63.6,0,91.5,0.9v6.4c-21.1-0.7-52.4-1.8-69.7-1.8c0,0-27.4-1-42.9,0c-15.6,1-32.4,2.5-31.1-0.5
		c1.2-3,9.3-12,14.3-16s24.9-18.5,24.9-18.5s-8.1,0-27.4,0s-59.1-0.5-70.3-2c-11.2-1.5-62.8-4.5-60.4-2c2.5,2.5,13.7,11.5,29.2,22
		c15.6,10.5,23.6,13.5,16.8,16.5c-6.8,3-51,2.5-62.8,1s-71.6,3.5-80.9,3s-97.1-0.5-105.2-1c-8.1-0.5-31.1,0-29.9-2.5
		c1.2-2.5,3.1-9.5,11.8-17.5s19.3-20.5,24.3-23.5s-8.1,0-24.3,0.5s-54.1,0-66.6-1.5c-12.4-1.5-69.7-6.5-67.8-4s34.8,29,44.8,37
		s6.2,7,0.6,8.5c-5.6,1.5-107.6,1-121.3-0.5s-37.3,3.5-58.5,4s-81.5-4-89-3.5s-3.7-2.5-0.6-5.5c3.1-3,8.7-9.5,18-16
		s26.1-18,19.3-17.5s-70.9,2-84.6,1.5c-13.7-0.5-77.8-6-75.9-3.5c1.9,2.5,22.4,17.5,29.9,24s18,14,11.8,15.5s-108.3,4.5-126.3,4.5
		s-126.9-6-133.8-6.5c-6.8-0.5-8.1,0-4.4-5c3.7-5,47.3-32.5,42.9-31.5s-28,1.5-45.4,3s-54.1-0.5-70.3-2.5s-50.4-3.5-52.3-2.5
		s10.6,10,25.5,22s21.2,20,16.2,21s-39.2,3-50.4,3.5s-57.2-1.5-57.2-1.5c-2.3,0-10.4-0.3-21.1-0.7V560C9.8,560.2,18,560.5,23,560.9z
		"/>
	<path class="st0" d="M20.5,576.4c0,0,123.8-2.5,128.8-2.5s-3.7-7-10.6-14c-6.8-7-23-23.5-19.9-24.5s38.6,1.5,56,2s46.7-4,42.9,0.5
		c-3.7,4.5-23.6,22-33,30.5c-9.3,8.5,2.5,4.5,13.7,5s123.2,5,138.1,3c14.9-2,37.3-3.5,55.4-3.5c18,0,109.9,2.3,106.4-2
		s-28.6-33.5-32.4-37c-3.7-3.5,44.8,1.5,59.7,1c14.9-0.5,48.5-3,45.4,1s-44.2,38-41.1,39c3.1,1,49.2,2,80.9,3s61.6-2.5,74.7-2.5
		c13.1,0,98.3-1,127.6-2c29.2-1,42.3,3.5,36.1-3.5s-27.4-33.5-31.1-36c-3.7-2.5,34.2,2,59.7,1s42.3-4,36.1,1.5s-39.2,37.5-35.5,39
		s95.8,1.5,126.9,1c31.1-0.5,90.8-1,108.9-1s90.2-0.5,86.5-3.5c-12.3-9.9-39.8-36-33-36s69.1,3,87.1,1.5s15.6-2.5,10.6,3
		s-36.7,34.5-33.6,34.5s51.6,0,78.4-0.5s49.2,0.5,49.2,0.5c11.1,0.9,27,1.1,40.5,1.2v5.8c-15.2,0.2-33.8,0.3-39.2,0
		c0,0-40.4-1.5-57.2-0.5c-16.8,1-73.4-1-79-1s-5-1,5-12.5s28.6-25.5,24.3-25.5c-4.4,0-28.6,2-38,1c-9.3-1-31.1-2-36.7-1.5
		s3.1,6,6.8,10.5c3.7,4.5,26.8,23.5,24.3,25s-16.8,3.5-22.4,3.5s-62.2,0.5-74.7-0.5c-12.4-1-70.3,3.5-80.3,2s-94.6-1-105.8-1
		s-54.8,0.5-54.8-1.5s1.2-6.5,6.2-13s26.1-28.5,23.6-28.5s-10,0-28.6,1.5s-35.5,0-41.7-1.5s5.6,9,9.3,14s25.3,26.4,18.7,26.5
		c-9.3,0.2-74,2-101.4,0s-59.1,3-85.2,3.5c-26.1,0.5-69.1,0-108.3-1s-40.4-3-44.2-4c-3.7-1,1.9-7,5.6-9.5c3.7-2.5,29.2-25,31.7-27.5
		s-11.2,1-34.2,0.5s-45.4-1-45.4-1s6.8,11,21.2,24c14.3,13,10.6,15,5.6,15s-87.7,1-117-1c-29.2-2-52.9,5-73.4,4s-133.2-1-139.4-1.5
		s-0.6-7,2.5-11s29.2-28.5,29.2-28.5s-20.5,3-35.5,2.5c-14.9-0.5-42.9-5.5-41.1-3c1.9,2.5,13.1,17,19.3,23s16.6,15.4,8.1,16
		s-64.7,1.5-88.4,2c-23.6,0.5-49.2,0-49.2,0c-2.9,0.2-11,0.4-20.5,0.5v-5.8C8.5,576.2,15.9,576.2,20.5,576.4z"/>
	<path class="st0" d="M1045.9,498.3c2.3-1.7,23.6,26,26.1,28.5s-11.8,2-22.4,2.5s-30.5-0.5-33.6-0.5s8.1-11.5,12.4-15
		S1039.7,502.8,1045.9,498.3z"/>
	<path class="st0" d="M700,502.3c-1.6,1.5-4.4,6-13.1,13.5c-8.7,7.5-16.8,12.5-13.1,13s15.6,0,26.1,0.5c10.6,0.5,22.4,0,25.5-1
		c1.3-0.4-3.9-5.5-8.7-11C709.8,509.4,701.8,500.5,700,502.3z"/>
	<path class="st0" d="M350.3,500.3c3,4,21.8,21.5,24.3,23.5s-25.5,2-29.2,2s-21.2,1.5-18.7-2C329.1,520.3,348.4,497.8,350.3,500.3z"
		/>
	<path class="st0" d="M166.1,576.9c3,1.7,19.9-23.5,21.2-26.5c1.2-3-12.4,1-26.8-0.5c-14.3-1.5-18-2-14.3,1.5
		S161.8,574.4,166.1,576.9z"/>
	<path class="st0" d="M515.2,572.4c-1.4,2.3-21.2-21-22.4-23c-1.2-2,10-1.5,19.9-0.5c10,1,20.5-2.5,23-1S517.1,569.4,515.2,572.4z"
		/>
	<path class="st0" d="M868,571.9c-3.1,1-21.2-20.5-23-23c-1.9-2.5,38.6-3.5,41.1-2C888.5,548.4,871.1,570.9,868,571.9z"/>
	<path class="st0" d="M1217.7,572.9c-2.9,0.9-22.4-21.5-24.9-23s41.1-4,43.6-2C1238.8,549.9,1222.7,571.4,1217.7,572.9z"/>
</g>
<g>
	<path class="st0" d="M16.8,671.8c-6.7-7.2-13.1-16-16.8-16.3v27.4c10.6,0,20.9-0.1,23.7-0.1C29.9,682.8,24.3,679.8,16.8,671.8z"/>
	<path class="st0" d="M1398.8,655.8c-2.8,1.8-8.2,7.9-14.3,14c-6.1,6.1-12.8,12-11.8,12.5s14.4,0.6,27.4,0.6v-27.4
		C1399.6,655.4,1399.1,655.5,1398.8,655.8z"/>
	<path class="st0" d="M1375.7,691.8c-11.2,0-49.2-0.5-52.9,0c-3.7,0.5,0-2,5-6c4.7-3.8,16.2-13.5,26.8-21
		c10.6-7.5,26.8-16.5,21.8-16.5s-53.5-3-74-4s-113.9,5.5-130.7,5.5s-28-3.5-40.4-4s-73.4,0-68.4,3.5s30.5,20.5,36.7,25
		s17.4,9.5,9.3,10s-51,1-57.2,1.5s-67.2,1.5-64.1-1c3.1-2.5,36.7-27.5,41.7-30s1.9-2.5-33.6-4.5s-70.9,0-95.2-0.5s-92.7,4.5-113.9,5
		s-62.8,0-55.4,4c7.5,4,48.5,28.5,46.7,29.5c-1.9,1-9.3,3-36.1,2s-64.1-0.5-89,1s-29.9,1-26.1-1.5c3.7-2.5,9.3-5.5,12.4-7
		c3.1-1.5,26.1-19,32.4-22.5c6.2-3.5,14.3-11,10-11c-4.4,0-62.2-4.5-104.5-4.5s-97.7,4.5-127.6,4.5s-73.4-2-70.3,1.5
		c3.1,3.5,51.6,35,47.9,35.5s-42.3,1-72.2,2.5s-70.3-2-69.7-3.5c0.6-1.5,47.3-33,52.3-36s-39.2-2-67.8-3.5
		c-28.6-1.5-117.6,2.5-140.6,4.5s-108.9,0.5-107,2c1.9,1.5,36.1,29.5,44.2,34.5s-4.4,4-13.1,3.5c-5.5-0.3-32.3,0.4-52.9,0.9v5.3
		c1.7-0.1,3-0.2,3.7-0.2c8.1-1,48.5-1,48.5-1c5.5,1.1,34.8,0,35.5-2c1.1-3.5-3.7-3.5-10-8.5c-6.2-5-41.1-27.5-34.2-27
		c6.8,0.5,39.8,1,66,0.5c26.1-0.5,90.2-3.5,110.8-4.5c20.5-1,101.4-2.5,97.7,0s-34.2,24.5-42.3,30c-8.1,5.5-10.6,7.5,0,8
		s56.6,5,77.2,4c20.5-1,76.5-2,86.5-2s7.5-1,1.9-5.5s-20.5-18-27.4-22c-6.8-4-18.7-12-10-10.5s48.5,0,82.1-1s96.4-3.5,118.2-2.5
		s66,0.5,61.6,3s-36.1,25-43.6,31s-10,7-3.7,9.5c6.2,2.5,18.7,2,37.3,1c18.7-1,46-0.5,74.7,0c28.6,0.5,51.6-3.5,56-3.5
		s6.8-2.5,4.4-4c-2.5-1.5-40.4-28-45.4-29s21.2-1.5,35.5-1s94-1.5,112-2s97.1-1,105.2-1.5c8.1-0.5,19.3,0.5,15.6,3
		s-32.4,25-36.7,27.5c-4.4,2.5-6.2,6.5,1.9,6c27.6-1.6,50-1,66,0c26.7,1.6,53.5-2.2,80.3-2c1.4,0,6.1,0.1,6.7-1.5
		c0.4-0.9-0.3-2.1-2.4-3.5c-5-3.5-44.8-30.5-49.8-33s29.9,0.5,41.1,0.5s29.9,3.5,46.7,4c16.8,0.5,86.5-4.5,105.2-5s87.1-1,86.5,0.5
		s-10,10-20.5,17.5c-10.6,7.5-33,26.5-26.1,27c6.2,0.5,70.2,0.5,87.7-0.3v-5.3C1388.2,691.5,1378.5,691.8,1375.7,691.8z"/>
	<path class="st0" d="M1377,711.3c0,0-99.6,0.5-96.4-3c3.1-3.5,41.1-35.9,47.3-38.5c6.2-2.6,7.5-3.5-30.5-2s-102.7,5-125.1,3
		s-51.6-8-46.7-3c5,5,29.9,23.5,41.7,31c11.8,7.5,12.4,9-5.6,9.5s-100.2,2-115.7,2s-115.1,0-112.6-2.5s39.8-32.5,44.2-37.5
		s-78.4,0.5-112.6,1.5c-34.2,1-80.9-5-78.4-1s49.8,37,45.4,37c-4.4,0-52.3,4-80.9,4c-28.6,0-35.5-1.5-49.2-2.5s-127.6,1-122.6-2
		s49.8-40,54.1-42.5c4.4-2.5-65.3,1.5-107,2.5s-82.1-0.5-87.1-0.5s-1.9,2.5,4.4,5.5c13.3,6.4,45.4,38.5,41.1,38.5s-95.8,2.5-131.3,1
		s-126.8-1-122.6-4.5s51.6-36.5,47.3-37c-4.4-0.5-64.1-0.5-94,1s-81.5,2.5-92.7,1.5s-6.2,1,2.5,8s35.5,28,32.4,28.5
		s-14.9,0.5-34.8,0c-22.1-0.6-63.6,0-91.5,0.9v6.4c21.1-0.7,52.4-1.8,69.7-1.8c0,0,27.4-1,42.9,0c15.6,1,32.4,2.5,31.1-0.5
		c-1.2-3-9.3-12-14.3-16s-24.9-18.5-24.9-18.5s8.1,0,27.4,0s59.1-0.5,70.3-2s62.8-4.5,60.4-2c-2.5,2.5-13.7,11.5-29.2,22
		c-15.6,10.5-23.6,13.5-16.8,16.5s51,2.5,62.8,1s71.6,3.5,80.9,3s97.1-0.5,105.2-1s31.1,0,29.9-2.5s-3.1-9.5-11.8-17.5
		c-8.7-8-19.3-20.5-24.3-23.5s8.1,0,24.3,0.5c16.2,0.5,54.1,0,66.6-1.5c12.4-1.5,69.7-6.5,67.8-4s-34.8,29-44.8,37s-6.2,7-0.6,8.5
		c5.6,1.5,107.6,1,121.3-0.5s37.3,3.5,58.5,4s81.5-4,89-3.5s3.7-2.5,0.6-5.5c-3.1-3-8.7-9.5-18-16s-26.1-18-19.3-17.5
		s70.9,2,84.6,1.5c13.7-0.5,77.8-6,75.9-3.5c-1.9,2.5-22.4,17.5-29.9,24s-18,14-11.8,15.5s108.3,4.5,126.3,4.5s126.9-6,133.8-6.5
		c6.8-0.5,8.1,0,4.4-5s-47.3-32.5-42.9-31.5s28,1.5,45.4,3s54.1-0.5,70.3-2.5c16.2-2,50.4-3.5,52.3-2.5s-10.6,10-25.5,22
		s-21.2,20-16.2,21s39.2,3,50.4,3.5c11.2,0.5,57.2-1.5,57.2-1.5c2.3,0,10.4-0.3,21.1-0.7v-6.2C1390.2,710.7,1382,710.9,1377,711.3z"
		/>
	<path class="st0" d="M1379.5,726.8c0,0-123.8-2.5-128.8-2.5s3.7-7,10.6-14c6.8-7,23-23.5,19.9-24.5s-38.6,1.5-56,2
		s-46.7-4-42.9,0.5c3.7,4.5,23.6,22,33,30.5c9.3,8.5-2.5,4.5-13.7,5s-123.2,5-138.1,3s-37.3-3.5-55.4-3.5c-18,0-109.9,2.3-106.4-2
		s28.6-33.5,32.4-37c3.7-3.5-44.8,1.5-59.7,1s-48.5-3-45.4,1s44.2,38,41.1,39c-3.1,1-49.2,2-80.9,3s-61.6-2.5-74.7-2.5
		c-13.1,0-98.3-1-127.6-2c-29.2-1-42.3,3.5-36.1-3.5s27.4-33.5,31.1-36c3.7-2.5-34.2,2-59.7,1s-42.3-4-36.1,1.5s39.2,37.5,35.5,39
		s-95.8,1.5-126.9,1s-90.8-1-108.9-1s-90.2-0.5-86.5-3.5c12.3-9.9,39.8-36,33-36s-69.1,3-87.1,1.5s-15.6-2.5-10.6,3
		s36.7,34.5,33.6,34.5s-51.6,0-78.4-0.5s-49.2,0.5-49.2,0.5c-11.1,0.9-27,1.1-40.5,1.2v5.8c15.2,0.2,33.8,0.3,39.2,0
		c0,0,40.4-1.5,57.2-0.5s73.4-1,79-1s5-1-5-12.5s-28.6-25.5-24.3-25.5c4.4,0,28.6,2,38,1c9.3-1,31.1-2,36.7-1.5
		c5.6,0.5-3.1,6-6.8,10.5s-26.8,23.5-24.3,25s16.8,3.5,22.4,3.5s62.2,0.5,74.7-0.5c12.4-1,70.3,3.5,80.3,2s94.6-1,105.8-1
		c11.2,0,54.8,0.5,54.8-1.5s-1.2-6.5-6.2-13s-26.1-28.5-23.6-28.5s10,0,28.6,1.5c18.7,1.5,35.5,0,41.7-1.5s-5.6,9-9.3,14
		s-25.3,26.4-18.7,26.5c9.3,0.2,74,2,101.4,0s59.1,3,85.2,3.5c26.1,0.5,69.1,0,108.3-1s40.4-3,44.2-4c3.7-1-1.9-7-5.6-9.5
		c-3.7-2.5-29.2-25-31.7-27.5s11.2,1,34.2,0.5s45.4-1,45.4-1s-6.8,11-21.2,24c-14.3,13-10.6,15-5.6,15s87.7,1,117-1
		c29.2-2,52.9,5,73.4,4s133.2-1,139.4-1.5c6.2-0.5,0.6-7-2.5-11s-29.2-28.5-29.2-28.5s20.5,3,35.5,2.5c14.9-0.5,42.9-5.5,41.1-3
		c-1.9,2.5-13.1,17-19.3,23c-6.2,6-16.6,15.4-8.1,16s64.7,1.5,88.4,2c23.6,0.5,49.2,0,49.2,0c2.9,0.2,11,0.4,20.5,0.5v-5.8
		C1391.5,726.6,1384.1,726.6,1379.5,726.8z"/>
	<path class="st0" d="M354.1,648.7c-2.3-1.7-23.6,26-26.1,28.5s11.8,2,22.4,2.5s30.5-0.5,33.6-0.5s-8.1-11.5-12.4-15
		C367.1,660.8,360.3,653.2,354.1,648.7z"/>
	<path class="st0" d="M700,652.7c1.6,1.5,4.4,6,13.1,13.5c8.7,7.5,16.8,12.5,13.1,13s-15.6,0-26.1,0.5c-10.6,0.5-22.4,0-25.5-1
		c-1.3-0.4,3.9-5.5,8.7-11C690.2,659.9,698.2,651,700,652.7z"/>
	<path class="st0" d="M1049.7,650.7c-3,4-21.8,21.5-24.3,23.5s25.5,2,29.2,2s21.2,1.5,18.7-2
		C1070.9,670.8,1051.6,648.2,1049.7,650.7z"/>
	<path class="st0" d="M1233.9,727.3c-3,1.7-19.9-23.5-21.2-26.5c-1.2-3,12.4,1,26.8-0.5c14.3-1.5,18-2,14.3,1.5
		C1250.1,705.3,1238.2,724.8,1233.9,727.3z"/>
	<path class="st0" d="M884.8,722.8c1.4,2.3,21.2-21,22.4-23s-10-1.5-19.9-0.5c-10,1-20.5-2.5-23-1S882.9,719.8,884.8,722.8z"/>
	<path class="st0" d="M532,722.3c3.1,1,21.2-20.5,23-23c1.9-2.5-38.6-3.5-41.1-2C511.5,698.8,528.9,721.3,532,722.3z"/>
	<path class="st0" d="M182.3,723.3c2.9,0.9,22.4-21.5,24.9-23s-41.1-4-43.6-2C161.2,700.3,177.3,721.8,182.3,723.3z"/>
</g>
<g>
	<g>
		<path class="st1" d="M175,612.1c-14.5,4.8-28.3,9.3-42.5,14c-0.5-2.7-0.8-4.3-1.1-5.8c-0.2-1.3-0.5-2.6-0.8-4.2
			c-1.8-0.4-3.4-1-5-1c-13.9-0.1-27.9-0.1-41.8-0.1c-10.3,0-20.7,0.4-31-0.3c-8.9-0.6-16.4,1.5-23.4,6.8
			c-6.6,4.9-13.6,9.3-19.7,13.4c-2.2-0.6-3.4-1.6-4.3-2.8c3.5-2.7,8.8-3.8,12.4-6.3c1.5-1.1,0-3.6-1.5-2.5
			c-3.6,2.6-8.4,3.7-12.1,6.1c-0.6-1.8-1.1-3.7-2.6-5c0.4-0.3,0.8-0.5,1.2-0.8c0.1,0,0.2,0,0.4,0c5-1.5,9.5-4.1,14.2-6.2
			c1.9-0.9,0.3-3.6-1.7-2.8c-4,1.8-7.7,3.8-11.8,5.3c-1.4-0.2-2.5-0.3-3.9-0.5c1.6-0.9,3.3-1.6,5.1-2c1.9-0.4,1.1-3.2-0.8-2.8
			c-1.1,0.2-2.1,0.6-3.2,1c0.4-1.4,0.5-2.8,0.5-4.1H14c1.9,0,1.9-2.9,0-2.9H1.4c-0.1-1.9,1.5-2.4,2.6-3c1.2,0,2.3,0.2,3.4,0.4
			c1.9,0.4,2.7-2.4,0.8-2.8c-1.2-0.3-2.4-0.4-3.6-0.5c-0.3-0.9,0-2,0.4-3.2c4.1,1,7.6,3.5,11.3,5.4c1.7,0.9,3.2-1.7,1.5-2.5
			c-3.9-2-7.5-4.4-11.6-5.5c0,0,0-0.1,0.1-0.1c1.5-2.9,3.8-3.4,7-1.8c8.6,4.5,17.2,9,26,13.1c3.2,1.5,6.8,2.8,10.3,2.9
			c23.4,0.8,46.9,1.3,70.3,1.7c11.2,0.2,11.2-0.1,12.8-10.6C140.1,600.9,168.7,607.4,175,612.1z M135.5,620.6
			c10.4-1.4,18.9-5.7,28-8.3c0-0.8-0.1-1.6-0.1-2.4c-7.4-1.8-14.9-3.7-22.3-5.4c-2.9-0.7-5.2,0.4-5.4,3.5
			C135.3,611.9,135.5,615.8,135.5,620.6z"/>
	</g>
	<g>
		<path class="st1" d="M350,612.1c-14.5,4.8-28.3,9.3-42.5,14c-0.5-2.7-0.8-4.3-1.1-5.8c-0.2-1.3-0.5-2.6-0.8-4.2
			c-1.8-0.4-3.4-1-5-1c-13.9-0.1-27.9-0.1-41.8-0.1c-10.3,0-20.7,0.4-31-0.3c-8.9-0.6-16.4,1.5-23.4,6.8
			c-6.6,4.9-13.6,9.3-19.7,13.4c-2.2-0.6-3.4-1.6-4.3-2.8c3.5-2.7,8.8-3.8,12.4-6.3c1.5-1.1,0-3.6-1.5-2.5
			c-3.6,2.6-8.4,3.7-12.1,6.1c-0.6-1.8-1.1-3.7-2.6-5c0.4-0.3,0.8-0.5,1.2-0.8c0.1,0,0.2,0,0.4,0c5-1.5,9.5-4.1,14.2-6.2
			c1.9-0.9,0.3-3.6-1.7-2.8c-4,1.8-7.7,3.8-11.8,5.3c-1.4-0.2-2.5-0.3-3.9-0.5c1.6-0.9,3.3-1.6,5.1-2c1.9-0.4,1.1-3.2-0.8-2.8
			c-1.1,0.2-2.1,0.6-3.2,1c0.4-1.4,0.5-2.8,0.5-4.1H189c1.9,0,1.9-2.9,0-2.9h-12.5c-0.1-1.9,1.5-2.4,2.6-3c1.2,0,2.3,0.2,3.4,0.4
			c1.9,0.4,2.7-2.4,0.8-2.8c-1.2-0.3-2.4-0.4-3.6-0.5c-0.3-0.9,0-2,0.4-3.2c4.1,1,7.6,3.5,11.3,5.4c1.7,0.9,3.2-1.7,1.5-2.5
			c-3.9-2-7.5-4.4-11.6-5.5c0,0,0-0.1,0.1-0.1c1.5-2.9,3.8-3.4,7-1.8c8.6,4.5,17.2,9,26,13.1c3.2,1.5,6.8,2.8,10.3,2.9
			c23.4,0.8,46.9,1.3,70.3,1.7c11.2,0.2,11.2-0.1,12.8-10.6C315.1,600.9,343.7,607.4,350,612.1z M310.5,620.6
			c10.4-1.4,18.9-5.7,28-8.3c0-0.8-0.1-1.6-0.1-2.4c-7.4-1.8-14.9-3.7-22.3-5.4c-2.9-0.7-5.2,0.4-5.4,3.5
			C310.3,611.9,310.5,615.8,310.5,620.6z"/>
	</g>
	<g>
		<path class="st1" d="M525,612.1c-14.5,4.8-28.3,9.3-42.5,14c-0.5-2.7-0.8-4.3-1.1-5.8c-0.2-1.3-0.5-2.6-0.8-4.2
			c-1.8-0.4-3.4-1-5-1c-13.9-0.1-27.9-0.1-41.8-0.1c-10.3,0-20.7,0.4-31-0.3c-8.9-0.6-16.4,1.5-23.4,6.8
			c-6.6,4.9-13.6,9.3-19.7,13.4c-2.2-0.6-3.4-1.6-4.3-2.8c3.5-2.7,8.8-3.8,12.4-6.3c1.5-1.1,0-3.6-1.5-2.5
			c-3.6,2.6-8.4,3.7-12.1,6.1c-0.6-1.8-1.1-3.7-2.6-5c0.4-0.3,0.8-0.5,1.2-0.8c0.1,0,0.2,0,0.4,0c5-1.5,9.5-4.1,14.2-6.2
			c1.9-0.9,0.3-3.6-1.7-2.8c-4,1.8-7.7,3.8-11.8,5.3c-1.4-0.2-2.5-0.3-3.9-0.5c1.6-0.9,3.3-1.6,5.1-2c1.9-0.4,1.1-3.2-0.8-2.8
			c-1.1,0.2-2.1,0.6-3.2,1c0.4-1.4,0.5-2.8,0.5-4.1H364c1.9,0,1.9-2.9,0-2.9h-12.5c-0.1-1.9,1.5-2.4,2.6-3c1.2,0,2.3,0.2,3.4,0.4
			c1.9,0.4,2.7-2.4,0.8-2.8c-1.2-0.3-2.4-0.4-3.6-0.5c-0.3-0.9,0-2,0.4-3.2c4.1,1,7.6,3.5,11.3,5.4c1.7,0.9,3.2-1.7,1.5-2.5
			c-3.9-2-7.5-4.4-11.6-5.5c0,0,0-0.1,0.1-0.1c1.5-2.9,3.8-3.4,7-1.8c8.6,4.5,17.2,9,26,13.1c3.2,1.5,6.8,2.8,10.3,2.9
			c23.4,0.8,46.9,1.3,70.3,1.7c11.2,0.2,11.2-0.1,12.8-10.6C490.1,600.9,518.7,607.4,525,612.1z M485.5,620.6
			c10.4-1.4,18.9-5.7,28-8.3c0-0.8-0.1-1.6-0.1-2.4c-7.4-1.8-14.9-3.7-22.3-5.4c-2.9-0.7-5.2,0.4-5.4,3.5
			C485.3,611.9,485.5,615.8,485.5,620.6z"/>
	</g>
	<g>
		<path class="st1" d="M700,612.1c-14.5,4.8-28.3,9.3-42.5,14c-0.5-2.7-0.8-4.3-1.1-5.8c-0.2-1.3-0.5-2.6-0.8-4.2
			c-1.8-0.4-3.4-1-5-1c-13.9-0.1-27.9-0.1-41.8-0.1c-10.3,0-20.7,0.4-31-0.3c-8.9-0.6-16.4,1.5-23.4,6.8
			c-6.6,4.9-13.6,9.3-19.7,13.4c-2.2-0.6-3.4-1.6-4.3-2.8c3.5-2.7,8.8-3.8,12.4-6.3c1.5-1.1,0-3.6-1.5-2.5
			c-3.6,2.6-8.4,3.7-12.1,6.1c-0.6-1.8-1.1-3.7-2.6-5c0.4-0.3,0.8-0.5,1.2-0.8c0.1,0,0.2,0,0.4,0c5-1.5,9.5-4.1,14.2-6.2
			c1.9-0.9,0.3-3.6-1.7-2.8c-4,1.8-7.7,3.8-11.8,5.3c-1.4-0.2-2.5-0.3-3.9-0.5c1.6-0.9,3.3-1.6,5.1-2c1.9-0.4,1.1-3.2-0.8-2.8
			c-1.1,0.2-2.1,0.6-3.2,1c0.4-1.4,0.5-2.8,0.5-4.1H539c1.9,0,1.9-2.9,0-2.9h-12.5c-0.1-1.9,1.5-2.4,2.6-3c1.2,0,2.3,0.2,3.4,0.4
			c1.9,0.4,2.7-2.4,0.8-2.8c-1.2-0.3-2.4-0.4-3.6-0.5c-0.3-0.9,0-2,0.4-3.2c4.1,1,7.6,3.5,11.3,5.4c1.7,0.9,3.2-1.7,1.5-2.5
			c-3.9-2-7.5-4.4-11.6-5.5c0,0,0-0.1,0.1-0.1c1.5-2.9,3.8-3.4,7-1.8c8.6,4.5,17.2,9,26,13.1c3.2,1.5,6.8,2.8,10.3,2.9
			c23.4,0.8,46.9,1.3,70.3,1.7c11.2,0.2,11.2-0.1,12.8-10.6C665.1,600.9,693.7,607.4,700,612.1z M660.5,620.6
			c10.4-1.4,18.9-5.7,28-8.3c0-0.8-0.1-1.6-0.1-2.4c-7.4-1.8-14.9-3.7-22.3-5.4c-2.9-0.7-5.2,0.4-5.4,3.5
			C660.3,611.9,660.5,615.8,660.5,620.6z"/>
	</g>
	<g>
		<path class="st1" d="M875,612.1c-14.5,4.8-28.3,9.3-42.5,14c-0.5-2.7-0.8-4.3-1.1-5.8c-0.2-1.3-0.5-2.6-0.8-4.2
			c-1.8-0.4-3.4-1-5-1c-13.9-0.1-27.9-0.1-41.8-0.1c-10.3,0-20.7,0.4-31-0.3c-8.9-0.6-16.4,1.5-23.4,6.8
			c-6.6,4.9-13.6,9.3-19.7,13.4c-2.2-0.6-3.4-1.6-4.3-2.8c3.5-2.7,8.8-3.8,12.4-6.3c1.5-1.1,0-3.6-1.5-2.5
			c-3.6,2.6-8.4,3.7-12.1,6.1c-0.6-1.8-1.1-3.7-2.6-5c0.4-0.3,0.8-0.5,1.2-0.8c0.1,0,0.2,0,0.4,0c5-1.5,9.5-4.1,14.2-6.2
			c1.9-0.9,0.3-3.6-1.7-2.8c-4,1.8-7.7,3.8-11.8,5.3c-1.4-0.2-2.5-0.3-3.9-0.5c1.6-0.9,3.3-1.6,5.1-2c1.9-0.4,1.1-3.2-0.8-2.8
			c-1.1,0.2-2.1,0.6-3.2,1c0.4-1.4,0.5-2.8,0.5-4.1H714c1.9,0,1.9-2.9,0-2.9h-12.5c-0.1-1.9,1.5-2.4,2.6-3c1.2,0,2.3,0.2,3.4,0.4
			c1.9,0.4,2.7-2.4,0.8-2.8c-1.2-0.3-2.4-0.4-3.6-0.5c-0.3-0.9,0-2,0.4-3.2c4.1,1,7.6,3.5,11.3,5.4c1.7,0.9,3.2-1.7,1.5-2.5
			c-3.9-2-7.5-4.4-11.6-5.5c0,0,0-0.1,0.1-0.1c1.5-2.9,3.8-3.4,7-1.8c8.6,4.5,17.2,9,26,13.1c3.2,1.5,6.8,2.8,10.3,2.9
			c23.4,0.8,46.9,1.3,70.3,1.7c11.2,0.2,11.2-0.1,12.8-10.6C840.1,600.9,868.7,607.4,875,612.1z M835.5,620.6
			c10.4-1.4,18.9-5.7,28-8.3c0-0.8-0.1-1.6-0.1-2.4c-7.4-1.8-14.9-3.7-22.3-5.4c-2.9-0.7-5.2,0.4-5.4,3.5
			C835.3,611.9,835.5,615.8,835.5,620.6z"/>
	</g>
	<g>
		<path class="st1" d="M1050,612.1c-14.5,4.8-28.3,9.3-42.5,14c-0.5-2.7-0.8-4.3-1.1-5.8c-0.2-1.3-0.5-2.6-0.8-4.2
			c-1.8-0.4-3.4-1-5-1c-13.9-0.1-27.9-0.1-41.8-0.1c-10.3,0-20.7,0.4-31-0.3c-8.9-0.6-16.4,1.5-23.4,6.8
			c-6.6,4.9-13.6,9.3-19.7,13.4c-2.2-0.6-3.4-1.6-4.3-2.8c3.5-2.7,8.8-3.8,12.4-6.3c1.5-1.1,0-3.6-1.5-2.5
			c-3.6,2.6-8.4,3.7-12.1,6.1c-0.6-1.8-1.1-3.7-2.6-5c0.4-0.3,0.8-0.5,1.2-0.8c0.1,0,0.2,0,0.4,0c5-1.5,9.5-4.1,14.2-6.2
			c1.9-0.9,0.3-3.6-1.7-2.8c-4,1.8-7.7,3.8-11.8,5.3c-1.4-0.2-2.5-0.3-3.9-0.5c1.6-0.9,3.3-1.6,5.1-2c1.9-0.4,1.1-3.2-0.8-2.8
			c-1.1,0.2-2.1,0.6-3.2,1c0.4-1.4,0.5-2.8,0.5-4.1H889c1.9,0,1.9-2.9,0-2.9h-12.5c-0.1-1.9,1.5-2.4,2.6-3c1.2,0,2.3,0.2,3.4,0.4
			c1.9,0.4,2.7-2.4,0.8-2.8c-1.2-0.3-2.4-0.4-3.6-0.5c-0.3-0.9,0-2,0.4-3.2c4.1,1,7.6,3.5,11.3,5.4c1.7,0.9,3.2-1.7,1.5-2.5
			c-3.9-2-7.5-4.4-11.6-5.5c0,0,0-0.1,0.1-0.1c1.5-2.9,3.8-3.4,7-1.8c8.6,4.5,17.2,9,26,13.1c3.2,1.5,6.8,2.8,10.3,2.9
			c23.4,0.8,46.9,1.3,70.3,1.7c11.2,0.2,11.2-0.1,12.8-10.6C1015.1,600.9,1043.7,607.4,1050,612.1z M1010.5,620.6
			c10.4-1.4,18.9-5.7,28-8.3c0-0.8-0.1-1.6-0.1-2.4c-7.4-1.8-14.9-3.7-22.3-5.4c-2.9-0.7-5.2,0.4-5.4,3.5
			C1010.3,611.9,1010.5,615.8,1010.5,620.6z"/>
	</g>
	<g>
		<path class="st1" d="M1225,612.1c-14.5,4.8-28.3,9.3-42.5,14c-0.5-2.7-0.8-4.3-1.1-5.8c-0.2-1.3-0.5-2.6-0.8-4.2
			c-1.8-0.4-3.4-1-5-1c-13.9-0.1-27.9-0.1-41.8-0.1c-10.3,0-20.7,0.4-31-0.3c-8.9-0.6-16.4,1.5-23.4,6.8
			c-6.6,4.9-13.6,9.3-19.7,13.4c-2.2-0.6-3.4-1.6-4.3-2.8c3.5-2.7,8.8-3.8,12.4-6.3c1.5-1.1,0-3.6-1.5-2.5
			c-3.6,2.6-8.4,3.7-12.1,6.1c-0.6-1.8-1.1-3.7-2.6-5c0.4-0.3,0.8-0.5,1.2-0.8c0.1,0,0.2,0,0.4,0c5-1.5,9.5-4.1,14.2-6.2
			c1.9-0.9,0.3-3.6-1.7-2.8c-4,1.8-7.7,3.8-11.8,5.3c-1.4-0.2-2.5-0.3-3.9-0.5c1.6-0.9,3.3-1.6,5.1-2c1.9-0.4,1.1-3.2-0.8-2.8
			c-1.1,0.2-2.1,0.6-3.2,1c0.4-1.4,0.5-2.8,0.5-4.1h12.3c1.9,0,1.9-2.9,0-2.9h-12.5c-0.1-1.9,1.5-2.4,2.6-3c1.2,0,2.3,0.2,3.4,0.4
			c1.9,0.4,2.7-2.4,0.8-2.8c-1.2-0.3-2.4-0.4-3.6-0.5c-0.3-0.9,0-2,0.4-3.2c4.1,1,7.6,3.5,11.3,5.4c1.7,0.9,3.2-1.7,1.5-2.5
			c-3.9-2-7.5-4.4-11.6-5.5c0,0,0-0.1,0.1-0.1c1.5-2.9,3.8-3.4,7-1.8c8.6,4.5,17.2,9,26,13.1c3.2,1.5,6.8,2.8,10.3,2.9
			c23.4,0.8,46.9,1.3,70.3,1.7c11.2,0.2,11.2-0.1,12.8-10.6C1190.1,600.9,1218.7,607.4,1225,612.1z M1185.5,620.6
			c10.4-1.4,18.9-5.7,28-8.3c0-0.8-0.1-1.6-0.1-2.4c-7.4-1.8-14.9-3.7-22.3-5.4c-2.9-0.7-5.2,0.4-5.4,3.5
			C1185.3,611.9,1185.5,615.8,1185.5,620.6z"/>
	</g>
	<g>
		<path class="st1" d="M1400,612.1c-14.5,4.8-28.3,9.3-42.5,14c-0.5-2.7-0.8-4.3-1.1-5.8c-0.2-1.3-0.5-2.6-0.8-4.2
			c-1.8-0.4-3.4-1-5-1c-13.9-0.1-27.9-0.1-41.8-0.1c-10.3,0-20.7,0.4-31-0.3c-8.9-0.6-16.4,1.5-23.4,6.8
			c-6.6,4.9-13.6,9.3-19.7,13.4c-2.2-0.6-3.4-1.6-4.3-2.8c3.5-2.7,8.8-3.8,12.4-6.3c1.5-1.1,0-3.6-1.5-2.5
			c-3.6,2.6-8.4,3.7-12.1,6.1c-0.6-1.8-1.1-3.7-2.6-5c0.4-0.3,0.8-0.5,1.2-0.8c0.1,0,0.2,0,0.4,0c5-1.5,9.5-4.1,14.2-6.2
			c1.9-0.9,0.3-3.6-1.7-2.8c-4,1.8-7.7,3.8-11.8,5.3c-1.4-0.2-2.5-0.3-3.9-0.5c1.6-0.9,3.3-1.6,5.1-2c1.9-0.4,1.1-3.2-0.8-2.8
			c-1.1,0.2-2.1,0.6-3.2,1c0.4-1.4,0.5-2.8,0.5-4.1h12.3c1.9,0,1.9-2.9,0-2.9h-12.5c-0.1-1.9,1.5-2.4,2.6-3c1.2,0,2.3,0.2,3.4,0.4
			c1.9,0.4,2.7-2.4,0.8-2.8c-1.2-0.3-2.4-0.4-3.6-0.5c-0.3-0.9,0-2,0.4-3.2c4.1,1,7.6,3.5,11.3,5.4c1.7,0.9,3.2-1.7,1.5-2.5
			c-3.9-2-7.5-4.4-11.6-5.5c0,0,0-0.1,0.1-0.1c1.5-2.9,3.8-3.4,7-1.8c8.6,4.5,17.2,9,26,13.1c3.2,1.5,6.8,2.8,10.3,2.9
			c23.4,0.8,46.9,1.3,70.3,1.7c11.2,0.2,11.2-0.1,12.8-10.6C1365.1,600.9,1393.7,607.4,1400,612.1z M1360.5,620.6
			c10.4-1.4,18.9-5.7,28-8.3c0-0.8-0.1-1.6-0.1-2.4c-7.4-1.8-14.9-3.7-22.3-5.4c-2.9-0.7-5.2,0.4-5.4,3.5
			C1360.3,611.9,1360.5,615.8,1360.5,620.6z"/>
	</g>
</g>
<g>
	<g>
		<path class="st0" d="M16.8,768.2c-6.7-7.2-13.1-16-16.8-16.3v27.4c10.6,0,20.9-0.1,23.7-0.1C29.9,779.2,24.3,776.2,16.8,768.2z"/>
		<path class="st0" d="M1398.8,752.2c-2.8,1.8-8.2,7.9-14.3,14c-6.1,6.1-12.8,12-11.8,12.5s14.4,0.6,27.4,0.6v-27.4
			C1399.6,751.9,1399.1,751.9,1398.8,752.2z"/>
		<path class="st0" d="M1375.7,788.2c-11.2,0-49.2-0.5-52.9,0c-3.7,0.5,0-2,5-6c4.7-3.8,16.2-13.5,26.8-21
			c10.6-7.5,26.8-16.5,21.8-16.5s-53.5-3-74-4s-113.9,5.5-130.7,5.5s-28-3.5-40.4-4s-73.4,0-68.4,3.5s30.5,20.5,36.7,25
			s17.4,9.5,9.3,10s-51,1-57.2,1.5s-67.2,1.5-64.1-1c3.1-2.5,36.7-27.5,41.7-30s1.9-2.5-33.6-4.5s-70.9,0-95.2-0.5
			s-92.7,4.5-113.9,5s-62.8,0-55.4,4c7.5,4,48.5,28.5,46.7,29.5c-1.9,1-9.3,3-36.1,2s-64.1-0.5-89,1s-29.9,1-26.1-1.5
			c3.7-2.5,9.3-5.5,12.4-7s26.1-19,32.4-22.5c6.2-3.5,14.3-11,10-11c-4.4,0-62.2-4.5-104.5-4.5s-97.7,4.5-127.6,4.5
			s-73.4-2-70.3,1.5c3.1,3.5,51.6,35,47.9,35.5s-42.3,1-72.2,2.5s-70.3-2-69.7-3.5c0.6-1.5,47.3-33,52.3-36s-39.2-2-67.8-3.5
			c-28.6-1.5-117.6,2.5-140.6,4.5s-108.9,0.5-107,2c1.9,1.5,36.1,29.5,44.2,34.5s-4.4,4-13.1,3.5c-5.5-0.3-32.3,0.4-52.9,0.9v5.3
			c1.7-0.1,3-0.2,3.7-0.2c8.1-1,48.5-1,48.5-1c5.5,1.1,34.8,0,35.5-2c1.1-3.5-3.7-3.5-10-8.5c-6.2-5-41.1-27.5-34.2-27
			c6.8,0.5,39.8,1,66,0.5c26.1-0.5,90.2-3.5,110.8-4.5c20.5-1,101.4-2.5,97.7,0s-34.2,24.5-42.3,30c-8.1,5.5-10.6,7.5,0,8
			s56.6,5,77.2,4c20.5-1,76.5-2,86.5-2s7.5-1,1.9-5.5s-20.5-18-27.4-22c-6.8-4-18.7-12-10-10.5s48.5,0,82.1-1s96.4-3.5,118.2-2.5
			s66,0.5,61.6,3s-36.1,25-43.6,31s-10,7-3.7,9.5c6.2,2.5,18.7,2,37.3,1c18.7-1,46-0.5,74.7,0c28.6,0.5,51.6-3.5,56-3.5
			s6.8-2.5,4.4-4c-2.5-1.5-40.4-28-45.4-29s21.2-1.5,35.5-1s94-1.5,112-2s97.1-1,105.2-1.5c8.1-0.5,19.3,0.5,15.6,3
			s-32.4,25-36.7,27.5c-4.4,2.5-6.2,6.5,1.9,6c27.6-1.6,50-1,66,0c26.7,1.6,53.5-2.2,80.3-2c1.4,0,6.1,0.1,6.7-1.5
			c0.4-0.9-0.3-2.1-2.4-3.5c-5-3.5-44.8-30.5-49.8-33s29.9,0.5,41.1,0.5s29.9,3.5,46.7,4c16.8,0.5,86.5-4.5,105.2-5s87.1-1,86.5,0.5
			s-10,10-20.5,17.5c-10.6,7.5-33,26.5-26.1,27c6.2,0.5,70.2,0.5,87.7-0.3v-5.3C1388.2,788,1378.5,788.2,1375.7,788.2z"/>
		<path class="st0" d="M1377,807.7c0,0-99.6,0.5-96.4-3c3.1-3.5,41.1-35.9,47.3-38.5c6.2-2.6,7.5-3.5-30.5-2s-102.7,5-125.1,3
			s-51.6-8-46.7-3c5,5,29.9,23.5,41.7,31c11.8,7.5,12.4,9-5.6,9.5s-100.2,2-115.7,2s-115.1,0-112.6-2.5s39.8-32.5,44.2-37.5
			s-78.4,0.5-112.6,1.5c-34.2,1-80.9-5-78.4-1s49.8,37,45.4,37c-4.4,0-52.3,4-80.9,4c-28.6,0-35.5-1.5-49.2-2.5s-127.6,1-122.6-2
			s49.8-40,54.1-42.5c4.4-2.5-65.3,1.5-107,2.5s-82.1-0.5-87.1-0.5s-1.9,2.5,4.4,5.5c13.3,6.4,45.4,38.5,41.1,38.5
			s-95.8,2.5-131.3,1s-126.8-1-122.6-4.5s51.6-36.5,47.3-37c-4.4-0.5-64.1-0.5-94,1s-81.5,2.5-92.7,1.5s-6.2,1,2.5,8
			s35.5,28,32.4,28.5s-14.9,0.5-34.8,0c-22.1-0.6-63.6,0-91.5,0.9v6.4c21.1-0.7,52.4-1.8,69.7-1.8c0,0,27.4-1,42.9,0
			c15.6,1,32.4,2.5,31.1-0.5c-1.2-3-9.3-12-14.3-16s-24.9-18.5-24.9-18.5s8.1,0,27.4,0s59.1-0.5,70.3-2s62.8-4.5,60.4-2
			c-2.5,2.5-13.7,11.5-29.2,22c-15.6,10.5-23.6,13.5-16.8,16.5s51,2.5,62.8,1s71.6,3.5,80.9,3s97.1-0.5,105.2-1s31.1,0,29.9-2.5
			s-3.1-9.5-11.8-17.5c-8.7-8-19.3-20.5-24.3-23.5s8.1,0,24.3,0.5c16.2,0.5,54.1,0,66.6-1.5c12.4-1.5,69.7-6.5,67.8-4
			s-34.8,29-44.8,37s-6.2,7-0.6,8.5c5.6,1.5,107.6,1,121.3-0.5s37.3,3.5,58.5,4s81.5-4,89-3.5s3.7-2.5,0.6-5.5c-3.1-3-8.7-9.5-18-16
			s-26.1-18-19.3-17.5s70.9,2,84.6,1.5c13.7-0.5,77.8-6,75.9-3.5c-1.9,2.5-22.4,17.5-29.9,24s-18,14-11.8,15.5s108.3,4.5,126.3,4.5
			s126.9-6,133.8-6.5c6.8-0.5,8.1,0,4.4-5s-47.3-32.5-42.9-31.5s28,1.5,45.4,3s54.1-0.5,70.3-2.5c16.2-2,50.4-3.5,52.3-2.5
			s-10.6,10-25.5,22s-21.2,20-16.2,21s39.2,3,50.4,3.5c11.2,0.5,57.2-1.5,57.2-1.5c2.3,0,10.4-0.3,21.1-0.7v-6.2
			C1390.2,807.1,1382,807.3,1377,807.7z"/>
		<path class="st0" d="M1379.5,823.3c0,0-123.8-2.5-128.8-2.5s3.7-7,10.6-14c6.8-7,23-23.5,19.9-24.5s-38.6,1.5-56,2
			s-46.7-4-42.9,0.5c3.7,4.5,23.6,22,33,30.5c9.3,8.5-2.5,4.5-13.7,5s-123.2,5-138.1,3s-37.3-3.5-55.4-3.5c-18,0-109.9,2.3-106.4-2
			s28.6-33.5,32.4-37c3.7-3.5-44.8,1.5-59.7,1s-48.5-3-45.4,1s44.2,38,41.1,39c-3.1,1-49.2,2-80.9,3s-61.6-2.5-74.7-2.5
			c-13.1,0-98.3-1-127.6-2c-29.2-1-42.3,3.5-36.1-3.5s27.4-33.5,31.1-36s-34.2,2-59.7,1s-42.3-4-36.1,1.5s39.2,37.5,35.5,39
			s-95.8,1.5-126.9,1s-90.8-1-108.9-1s-90.2-0.5-86.5-3.5c12.3-9.9,39.8-36,33-36s-69.1,3-87.1,1.5s-15.6-2.5-10.6,3
			s36.7,34.5,33.6,34.5s-51.6,0-78.4-0.5s-49.2,0.5-49.2,0.5c-11.1,0.9-27,1.1-40.5,1.2v5.8c15.2,0.2,33.8,0.3,39.2,0
			c0,0,40.4-1.5,57.2-0.5s73.4-1,79-1s5-1-5-12.5s-28.6-25.5-24.3-25.5c4.4,0,28.6,2,38,1c9.3-1,31.1-2,36.7-1.5
			c5.6,0.5-3.1,6-6.8,10.5s-26.8,23.5-24.3,25s16.8,3.5,22.4,3.5s62.2,0.5,74.7-0.5c12.4-1,70.3,3.5,80.3,2s94.6-1,105.8-1
			c11.2,0,54.8,0.5,54.8-1.5s-1.2-6.5-6.2-13s-26.1-28.5-23.6-28.5s10,0,28.6,1.5c18.7,1.5,35.5,0,41.7-1.5s-5.6,9-9.3,14
			s-25.3,26.4-18.7,26.5c9.3,0.2,74,2,101.4,0s59.1,3,85.2,3.5c26.1,0.5,69.1,0,108.3-1s40.4-3,44.2-4c3.7-1-1.9-7-5.6-9.5
			c-3.7-2.5-29.2-25-31.7-27.5s11.2,1,34.2,0.5s45.4-1,45.4-1s-6.8,11-21.2,24c-14.3,13-10.6,15-5.6,15s87.7,1,117-1
			c29.2-2,52.9,5,73.4,4s133.2-1,139.4-1.5c6.2-0.5,0.6-7-2.5-11s-29.2-28.5-29.2-28.5s20.5,3,35.5,2.5c14.9-0.5,42.9-5.5,41.1-3
			c-1.9,2.5-13.1,17-19.3,23c-6.2,6-16.6,15.4-8.1,16s64.7,1.5,88.4,2s49.2,0,49.2,0c2.9,0.2,11,0.4,20.5,0.5V823
			C1391.5,823,1384.1,823.1,1379.5,823.3z"/>
		<path class="st0" d="M354.1,745.2c-2.3-1.7-23.6,26-26.1,28.5s11.8,2,22.4,2.5s30.5-0.5,33.6-0.5s-8.1-11.5-12.4-15
			C367.1,757.2,360.3,749.7,354.1,745.2z"/>
		<path class="st0" d="M700,749.2c1.6,1.5,4.4,6,13.1,13.5c8.7,7.5,16.8,12.5,13.1,13s-15.6,0-26.1,0.5c-10.6,0.5-22.4,0-25.5-1
			c-1.3-0.4,3.9-5.5,8.7-11C690.2,756.3,698.2,747.4,700,749.2z"/>
		<path class="st0" d="M1049.7,747.2c-3,4-21.8,21.5-24.3,23.5s25.5,2,29.2,2s21.2,1.5,18.7-2
			C1070.9,767.2,1051.6,744.7,1049.7,747.2z"/>
		<path class="st0" d="M1233.9,823.8c-3,1.7-19.9-23.5-21.2-26.5c-1.2-3,12.4,1,26.8-0.5c14.3-1.5,18-2,14.3,1.5
			C1250.1,801.7,1238.2,821.3,1233.9,823.8z"/>
		<path class="st0" d="M884.8,819.3c1.4,2.3,21.2-21,22.4-23s-10-1.5-19.9-0.5c-10,1-20.5-2.5-23-1
			C861.8,796.2,882.9,816.2,884.8,819.3z"/>
		<path class="st0" d="M532,818.8c3.1,1,21.2-20.5,23-23c1.9-2.5-38.6-3.5-41.1-2C511.5,795.2,528.9,817.8,532,818.8z"/>
		<path class="st0" d="M182.3,819.8c2.9,0.9,22.4-21.5,24.9-23s-41.1-4-43.6-2C161.2,796.7,177.3,818.3,182.3,819.8z"/>
	</g>
	<g>
		<path class="st0" d="M16.8,918.6c-6.7-7.2-13.1-16-16.8-16.3v27.4c10.6,0,20.9-0.1,23.7-0.1C29.9,929.6,24.3,926.6,16.8,918.6z"/>
		<path class="st0" d="M1398.8,902.6c-2.8,1.8-8.2,7.9-14.3,14c-6.1,6.1-12.8,12-11.8,12.5s14.4,0.6,27.4,0.6v-27.4
			C1399.6,902.3,1399.1,902.4,1398.8,902.6z"/>
		<path class="st0" d="M1375.7,938.6c-11.2,0-49.2-0.5-52.9,0c-3.7,0.5,0-2,5-6c4.7-3.8,16.2-13.5,26.8-21
			c10.6-7.5,26.8-16.5,21.8-16.5s-53.5-3-74-4s-113.9,5.5-130.7,5.5s-28-3.5-40.4-4s-73.4,0-68.4,3.5s30.5,20.5,36.7,25
			s17.4,9.5,9.3,10s-51,1-57.2,1.5s-67.2,1.5-64.1-1c3.1-2.5,36.7-27.5,41.7-30s1.9-2.5-33.6-4.5s-70.9,0-95.2-0.5
			s-92.7,4.5-113.9,5s-62.8,0-55.4,4c7.5,4,48.5,28.5,46.7,29.5c-1.9,1-9.3,3-36.1,2s-64.1-0.5-89,1s-29.9,1-26.1-1.5
			c3.7-2.5,9.3-5.5,12.4-7c3.1-1.5,26.1-19,32.4-22.5c6.2-3.5,14.3-11,10-11c-4.4,0-62.2-4.5-104.5-4.5s-97.7,4.5-127.6,4.5
			s-73.4-2-70.3,1.5c3.1,3.5,51.6,35,47.9,35.5s-42.3,1-72.2,2.5s-70.3-2-69.7-3.5c0.6-1.5,47.3-33,52.3-36s-39.2-2-67.8-3.5
			c-28.6-1.5-117.6,2.5-140.6,4.5s-108.9,0.5-107,2c1.9,1.5,36.1,29.5,44.2,34.5s-4.4,4-13.1,3.5c-5.5-0.3-32.3,0.4-52.9,0.9v5.3
			c1.7-0.1,3-0.2,3.7-0.2c8.1-1,48.5-1,48.5-1c5.5,1.1,34.8,0,35.5-2c1.1-3.5-3.7-3.5-10-8.5c-6.2-5-41.1-27.5-34.2-27
			c6.8,0.5,39.8,1,66,0.5c26.1-0.5,90.2-3.5,110.8-4.5c20.5-1,101.4-2.5,97.7,0s-34.2,24.5-42.3,30c-8.1,5.5-10.6,7.5,0,8
			s56.6,5,77.2,4c20.5-1,76.5-2,86.5-2s7.5-1,1.9-5.5s-20.5-18-27.4-22c-6.8-4-18.7-12-10-10.5s48.5,0,82.1-1s96.4-3.5,118.2-2.5
			s66,0.5,61.6,3s-36.1,25-43.6,31s-10,7-3.7,9.5c6.2,2.5,18.7,2,37.3,1c18.7-1,46-0.5,74.7,0c28.6,0.5,51.6-3.5,56-3.5
			s6.8-2.5,4.4-4c-2.5-1.5-40.4-28-45.4-29s21.2-1.5,35.5-1s94-1.5,112-2s97.1-1,105.2-1.5c8.1-0.5,19.3,0.5,15.6,3
			s-32.4,25-36.7,27.5c-4.4,2.5-6.2,6.5,1.9,6c27.6-1.6,50-1,66,0c26.7,1.6,53.5-2.2,80.3-2c1.4,0,6.1,0.1,6.7-1.5
			c0.4-0.9-0.3-2.1-2.4-3.5c-5-3.5-44.8-30.5-49.8-33s29.9,0.5,41.1,0.5s29.9,3.5,46.7,4c16.8,0.5,86.5-4.5,105.2-5s87.1-1,86.5,0.5
			s-10,10-20.5,17.5c-10.6,7.5-33,26.5-26.1,27c6.2,0.5,70.2,0.5,87.7-0.3V938C1388.2,938.4,1378.5,938.6,1375.7,938.6z"/>
		<path class="st0" d="M1377,958.2c0,0-99.6,0.5-96.4-3c3.1-3.5,41.1-35.9,47.3-38.5c6.2-2.6,7.5-3.5-30.5-2s-102.7,5-125.1,3
			s-51.6-8-46.7-3c5,5,29.9,23.5,41.7,31c11.8,7.5,12.4,9-5.6,9.5s-100.2,2-115.7,2s-115.1,0-112.6-2.5s39.8-32.5,44.2-37.5
			s-78.4,0.5-112.6,1.5c-34.2,1-80.9-5-78.4-1s49.8,37,45.4,37c-4.4,0-52.3,4-80.9,4c-28.6,0-35.5-1.5-49.2-2.5s-127.6,1-122.6-2
			s49.8-40,54.1-42.5c4.4-2.5-65.3,1.5-107,2.5s-82.1-0.5-87.1-0.5s-1.9,2.5,4.4,5.5c13.3,6.4,45.4,38.5,41.1,38.5
			s-95.8,2.5-131.3,1s-126.8-1-122.6-4.5s51.6-36.5,47.3-37c-4.4-0.5-64.1-0.5-94,1s-81.5,2.5-92.7,1.5s-6.2,1,2.5,8
			s35.5,28,32.4,28.5s-14.9,0.5-34.8,0c-22.1-0.6-63.6,0-91.5,0.9v6.4c21.1-0.7,52.4-1.8,69.7-1.8c0,0,27.4-1,42.9,0
			c15.6,1,32.4,2.5,31.1-0.5c-1.2-3-9.3-12-14.3-16s-24.9-18.5-24.9-18.5s8.1,0,27.4,0s59.1-0.5,70.3-2c11.2-1.5,62.8-4.5,60.4-2
			c-2.5,2.5-13.7,11.5-29.2,22c-15.6,10.5-23.6,13.5-16.8,16.5s51,2.5,62.8,1s71.6,3.5,80.9,3s97.1-0.5,105.2-1s31.1,0,29.9-2.5
			s-3.1-9.5-11.8-17.5c-8.7-8-19.3-20.5-24.3-23.5s8.1,0,24.3,0.5c16.2,0.5,54.1,0,66.6-1.5c12.4-1.5,69.7-6.5,67.8-4
			s-34.8,29-44.8,37s-6.2,7-0.6,8.5c5.6,1.5,107.6,1,121.3-0.5s37.3,3.5,58.5,4s81.5-4,89-3.5s3.7-2.5,0.6-5.5c-3.1-3-8.7-9.5-18-16
			s-26.1-18-19.3-17.5s70.9,2,84.6,1.5c13.7-0.5,77.8-6,75.9-3.5c-1.9,2.5-22.4,17.5-29.9,24s-18,14-11.8,15.5s108.3,4.5,126.3,4.5
			s126.9-6,133.8-6.5c6.8-0.5,8.1,0,4.4-5s-47.3-32.5-42.9-31.5s28,1.5,45.4,3s54.1-0.5,70.3-2.5c16.2-2,50.4-3.5,52.3-2.5
			s-10.6,10-25.5,22s-21.2,20-16.2,21s39.2,3,50.4,3.5c11.2,0.5,57.2-1.5,57.2-1.5c2.3,0,10.4-0.3,21.1-0.7v-6.2
			C1390.2,957.5,1382,957.8,1377,958.2z"/>
		<path class="st0" d="M1379.5,973.7c0,0-123.8-2.5-128.8-2.5s3.7-7,10.6-14c6.8-7,23-23.5,19.9-24.5s-38.6,1.5-56,2
			s-46.7-4-42.9,0.5c3.7,4.5,23.6,22,33,30.5c9.3,8.5-2.5,4.5-13.7,5s-123.2,5-138.1,3s-37.3-3.5-55.4-3.5c-18,0-109.9,2.3-106.4-2
			s28.6-33.5,32.4-37c3.7-3.5-44.8,1.5-59.7,1s-48.5-3-45.4,1s44.2,38,41.1,39c-3.1,1-49.2,2-80.9,3s-61.6-2.5-74.7-2.5
			c-13.1,0-98.3-1-127.6-2c-29.2-1-42.3,3.5-36.1-3.5s27.4-33.5,31.1-36c3.7-2.5-34.2,2-59.7,1s-42.3-4-36.1,1.5s39.2,37.5,35.5,39
			s-95.8,1.5-126.9,1s-90.8-1-108.9-1s-90.2-0.5-86.5-3.5c12.3-9.9,39.8-36,33-36s-69.1,3-87.1,1.5s-15.6-2.5-10.6,3
			s36.7,34.5,33.6,34.5s-51.6,0-78.4-0.5s-49.2,0.5-49.2,0.5c-11.1,0.9-27,1.1-40.5,1.2v5.8c15.2,0.2,33.8,0.3,39.2,0
			c0,0,40.4-1.5,57.2-0.5s73.4-1,79-1s5-1-5-12.5s-28.6-25.5-24.3-25.5c4.4,0,28.6,2,38,1s31.1-2,36.7-1.5c5.6,0.5-3.1,6-6.8,10.5
			s-26.8,23.5-24.3,25s16.8,3.5,22.4,3.5s62.2,0.5,74.7-0.5c12.4-1,70.3,3.5,80.3,2s94.6-1,105.8-1c11.2,0,54.8,0.5,54.8-1.5
			s-1.2-6.5-6.2-13s-26.1-28.5-23.6-28.5s10,0,28.6,1.5c18.6,1.5,35.5,0,41.7-1.5s-5.6,9-9.3,14s-25.3,26.4-18.7,26.5
			c9.3,0.2,74,2,101.4,0s59.1,3,85.2,3.5c26.1,0.5,69.1,0,108.3-1s40.4-3,44.2-4c3.7-1-1.9-7-5.6-9.5c-3.7-2.5-29.2-25-31.7-27.5
			s11.2,1,34.2,0.5s45.4-1,45.4-1s-6.8,11-21.2,24c-14.3,13-10.6,15-5.6,15s87.7,1,117-1c29.2-2,52.9,5,73.4,4s133.2-1,139.4-1.5
			c6.2-0.5,0.6-7-2.5-11s-29.2-28.5-29.2-28.5s20.5,3,35.5,2.5c14.9-0.5,42.9-5.5,41.1-3c-1.9,2.5-13.1,17-19.3,23
			c-6.2,6-16.6,15.4-8.1,16s64.7,1.5,88.4,2c23.6,0.5,49.2,0,49.2,0c2.9,0.2,11,0.4,20.5,0.5v-5.8
			C1391.5,973.4,1384.1,973.5,1379.5,973.7z"/>
		<path class="st0" d="M354.1,895.6c-2.3-1.7-23.6,26-26.1,28.5s11.8,2,22.4,2.5s30.5-0.5,33.6-0.5s-8.1-11.5-12.4-15
			C367.1,907.6,360.3,900.1,354.1,895.6z"/>
		<path class="st0" d="M700,899.6c1.6,1.5,4.4,6,13.1,13.5c8.7,7.5,16.8,12.5,13.1,13s-15.6,0-26.1,0.5c-10.6,0.5-22.4,0-25.5-1
			c-1.3-0.4,3.9-5.5,8.7-11C690.2,906.7,698.2,897.8,700,899.6z"/>
		<path class="st0" d="M1049.7,897.6c-3,4-21.8,21.5-24.3,23.5s25.5,2,29.2,2s21.2,1.5,18.7-2
			C1070.9,917.6,1051.6,895.1,1049.7,897.6z"/>
		<path class="st0" d="M1233.9,974.2c-3,1.7-19.9-23.5-21.2-26.5c-1.2-3,12.4,1,26.8-0.5c14.3-1.5,18-2,14.3,1.5
			C1250.1,952.2,1238.2,971.7,1233.9,974.2z"/>
		<path class="st0" d="M884.8,969.7c1.4,2.3,21.2-21,22.4-23s-10-1.5-19.9-0.5c-10,1-20.5-2.5-23-1S882.9,966.7,884.8,969.7z"/>
		<path class="st0" d="M532,969.2c3.1,1,21.2-20.5,23-23c1.9-2.5-38.6-3.5-41.1-2C511.5,945.7,528.9,968.2,532,969.2z"/>
		<path class="st0" d="M182.3,970.2c2.9,0.9,22.4-21.5,24.9-23s-41.1-4-43.6-2C161.2,947.2,177.3,968.7,182.3,970.2z"/>
	</g>
	<g>
		<g>
			<path class="st1" d="M175,859c-14.5,4.8-28.3,9.3-42.5,14c-0.5-2.7-0.8-4.3-1.1-5.8c-0.2-1.3-0.5-2.6-0.8-4.2c-1.8-0.4-3.4-1-5-1
				c-13.9-0.1-27.9-0.1-41.8-0.1c-10.3,0-20.7,0.4-31-0.3c-8.9-0.6-16.4,1.5-23.4,6.8c-6.6,4.9-13.6,9.3-19.7,13.4
				c-2.2-0.6-3.4-1.6-4.3-2.8c3.5-2.7,8.8-3.8,12.4-6.3c1.5-1.1,0-3.6-1.5-2.5c-3.6,2.6-8.4,3.7-12.1,6.1c-0.6-1.8-1.1-3.7-2.6-5
				c0.4-0.3,0.8-0.5,1.2-0.8c0.1,0,0.2,0,0.4,0c5-1.5,9.5-4.1,14.2-6.2c1.9-0.9,0.3-3.6-1.7-2.8c-4,1.8-7.7,3.8-11.8,5.3
				c-1.4-0.2-2.5-0.3-3.9-0.5c1.6-0.9,3.3-1.6,5.1-2c1.9-0.4,1.1-3.2-0.8-2.8c-1.1,0.2-2.1,0.6-3.2,1c0.4-1.4,0.5-2.8,0.5-4.1H14
				c1.9,0,1.9-2.9,0-2.9H1.4c-0.1-1.9,1.5-2.4,2.6-3c1.2,0,2.3,0.2,3.4,0.4c1.9,0.4,2.7-2.4,0.8-2.8c-1.2-0.3-2.4-0.4-3.6-0.5
				c-0.3-0.9,0-2,0.4-3.2c4.1,1,7.6,3.5,11.3,5.4c1.7,0.9,3.2-1.7,1.5-2.5c-3.9-2-7.5-4.4-11.6-5.5c0,0,0-0.1,0.1-0.1
				c1.5-2.9,3.8-3.4,7-1.8c8.6,4.5,17.2,9,26,13.1c3.2,1.5,6.8,2.8,10.3,2.9c23.4,0.8,46.9,1.3,70.3,1.7
				c11.2,0.2,11.2-0.1,12.8-10.6C140.1,847.7,168.7,854.3,175,859z M135.5,867.5c10.4-1.4,18.9-5.7,28-8.3c0-0.8-0.1-1.6-0.1-2.4
				c-7.4-1.8-14.9-3.7-22.3-5.4c-2.9-0.7-5.2,0.4-5.4,3.5C135.3,858.7,135.5,862.7,135.5,867.5z"/>
		</g>
		<g>
			<path class="st1" d="M350,859c-14.5,4.8-28.3,9.3-42.5,14c-0.5-2.7-0.8-4.3-1.1-5.8c-0.2-1.3-0.5-2.6-0.8-4.2c-1.8-0.4-3.4-1-5-1
				c-13.9-0.1-27.9-0.1-41.8-0.1c-10.3,0-20.7,0.4-31-0.3c-8.9-0.6-16.4,1.5-23.4,6.8c-6.6,4.9-13.6,9.3-19.7,13.4
				c-2.2-0.6-3.4-1.6-4.3-2.8c3.5-2.7,8.8-3.8,12.4-6.3c1.5-1.1,0-3.6-1.5-2.5c-3.6,2.6-8.4,3.7-12.1,6.1c-0.6-1.8-1.1-3.7-2.6-5
				c0.4-0.3,0.8-0.5,1.2-0.8c0.1,0,0.2,0,0.4,0c5-1.5,9.5-4.1,14.2-6.2c1.9-0.9,0.3-3.6-1.7-2.8c-4,1.8-7.7,3.8-11.8,5.3
				c-1.4-0.2-2.5-0.3-3.9-0.5c1.6-0.9,3.3-1.6,5.1-2c1.9-0.4,1.1-3.2-0.8-2.8c-1.1,0.2-2.1,0.6-3.2,1c0.4-1.4,0.5-2.8,0.5-4.1H189
				c1.9,0,1.9-2.9,0-2.9h-12.5c-0.1-1.9,1.5-2.4,2.6-3c1.2,0,2.3,0.2,3.4,0.4c1.9,0.4,2.7-2.4,0.8-2.8c-1.2-0.3-2.4-0.4-3.6-0.5
				c-0.3-0.9,0-2,0.4-3.2c4.1,1,7.6,3.5,11.3,5.4c1.7,0.9,3.2-1.7,1.5-2.5c-3.9-2-7.5-4.4-11.6-5.5c0,0,0-0.1,0.1-0.1
				c1.5-2.9,3.8-3.4,7-1.8c8.6,4.5,17.2,9,26,13.1c3.2,1.5,6.8,2.8,10.3,2.9c23.4,0.8,46.9,1.3,70.3,1.7
				c11.2,0.2,11.2-0.1,12.8-10.6C315.1,847.7,343.7,854.3,350,859z M310.5,867.5c10.4-1.4,18.9-5.7,28-8.3c0-0.8-0.1-1.6-0.1-2.4
				c-7.4-1.8-14.9-3.7-22.3-5.4c-2.9-0.7-5.2,0.4-5.4,3.5C310.3,858.7,310.5,862.7,310.5,867.5z"/>
		</g>
		<g>
			<path class="st1" d="M525,859c-14.5,4.8-28.3,9.3-42.5,14c-0.5-2.7-0.8-4.3-1.1-5.8c-0.2-1.3-0.5-2.6-0.8-4.2c-1.8-0.4-3.4-1-5-1
				c-13.9-0.1-27.9-0.1-41.8-0.1c-10.3,0-20.7,0.4-31-0.3c-8.9-0.6-16.4,1.5-23.4,6.8c-6.6,4.9-13.6,9.3-19.7,13.4
				c-2.2-0.6-3.4-1.6-4.3-2.8c3.5-2.7,8.8-3.8,12.4-6.3c1.5-1.1,0-3.6-1.5-2.5c-3.6,2.6-8.4,3.7-12.1,6.1c-0.6-1.8-1.1-3.7-2.6-5
				c0.4-0.3,0.8-0.5,1.2-0.8c0.1,0,0.2,0,0.4,0c5-1.5,9.5-4.1,14.2-6.2c1.9-0.9,0.3-3.6-1.7-2.8c-4,1.8-7.7,3.8-11.8,5.3
				c-1.4-0.2-2.5-0.3-3.9-0.5c1.6-0.9,3.3-1.6,5.1-2c1.9-0.4,1.1-3.2-0.8-2.8c-1.1,0.2-2.1,0.6-3.2,1c0.4-1.4,0.5-2.8,0.5-4.1H364
				c1.9,0,1.9-2.9,0-2.9h-12.5c-0.1-1.9,1.5-2.4,2.6-3c1.2,0,2.3,0.2,3.4,0.4c1.9,0.4,2.7-2.4,0.8-2.8c-1.2-0.3-2.4-0.4-3.6-0.5
				c-0.3-0.9,0-2,0.4-3.2c4.1,1,7.6,3.5,11.3,5.4c1.7,0.9,3.2-1.7,1.5-2.5c-3.9-2-7.5-4.4-11.6-5.5c0,0,0-0.1,0.1-0.1
				c1.5-2.9,3.8-3.4,7-1.8c8.6,4.5,17.2,9,26,13.1c3.2,1.5,6.8,2.8,10.3,2.9c23.4,0.8,46.9,1.3,70.3,1.7
				c11.2,0.2,11.2-0.1,12.8-10.6C490.1,847.7,518.7,854.3,525,859z M485.5,867.5c10.4-1.4,18.9-5.7,28-8.3c0-0.8-0.1-1.6-0.1-2.4
				c-7.4-1.8-14.9-3.7-22.3-5.4c-2.9-0.7-5.2,0.4-5.4,3.5C485.3,858.7,485.5,862.7,485.5,867.5z"/>
		</g>
		<g>
			<path class="st1" d="M700,859c-14.5,4.8-28.3,9.3-42.5,14c-0.5-2.7-0.8-4.3-1.1-5.8c-0.2-1.3-0.5-2.6-0.8-4.2c-1.8-0.4-3.4-1-5-1
				c-13.9-0.1-27.9-0.1-41.8-0.1c-10.3,0-20.7,0.4-31-0.3c-8.9-0.6-16.4,1.5-23.4,6.8c-6.6,4.9-13.6,9.3-19.7,13.4
				c-2.2-0.6-3.4-1.6-4.3-2.8c3.5-2.7,8.8-3.8,12.4-6.3c1.5-1.1,0-3.6-1.5-2.5c-3.6,2.6-8.4,3.7-12.1,6.1c-0.6-1.8-1.1-3.7-2.6-5
				c0.4-0.3,0.8-0.5,1.2-0.8c0.1,0,0.2,0,0.4,0c5-1.5,9.5-4.1,14.2-6.2c1.9-0.9,0.3-3.6-1.7-2.8c-4,1.8-7.7,3.8-11.8,5.3
				c-1.4-0.2-2.5-0.3-3.9-0.5c1.6-0.9,3.3-1.6,5.1-2c1.9-0.4,1.1-3.2-0.8-2.8c-1.1,0.2-2.1,0.6-3.2,1c0.4-1.4,0.5-2.8,0.5-4.1H539
				c1.9,0,1.9-2.9,0-2.9h-12.5c-0.1-1.9,1.5-2.4,2.6-3c1.2,0,2.3,0.2,3.4,0.4c1.9,0.4,2.7-2.4,0.8-2.8c-1.2-0.3-2.4-0.4-3.6-0.5
				c-0.3-0.9,0-2,0.4-3.2c4.1,1,7.6,3.5,11.3,5.4c1.7,0.9,3.2-1.7,1.5-2.5c-3.9-2-7.5-4.4-11.6-5.5c0,0,0-0.1,0.1-0.1
				c1.5-2.9,3.8-3.4,7-1.8c8.6,4.5,17.2,9,26,13.1c3.2,1.5,6.8,2.8,10.3,2.9c23.4,0.8,46.9,1.3,70.3,1.7
				c11.2,0.2,11.2-0.1,12.8-10.6C665.1,847.7,693.7,854.3,700,859z M660.5,867.5c10.4-1.4,18.9-5.7,28-8.3c0-0.8-0.1-1.6-0.1-2.4
				c-7.4-1.8-14.9-3.7-22.3-5.4c-2.9-0.7-5.2,0.4-5.4,3.5C660.3,858.7,660.5,862.7,660.5,867.5z"/>
		</g>
		<g>
			<path class="st1" d="M875,859c-14.5,4.8-28.3,9.3-42.5,14c-0.5-2.7-0.8-4.3-1.1-5.8c-0.2-1.3-0.5-2.6-0.8-4.2c-1.8-0.4-3.4-1-5-1
				c-13.9-0.1-27.9-0.1-41.8-0.1c-10.3,0-20.7,0.4-31-0.3c-8.9-0.6-16.4,1.5-23.4,6.8c-6.6,4.9-13.6,9.3-19.7,13.4
				c-2.2-0.6-3.4-1.6-4.3-2.8c3.5-2.7,8.8-3.8,12.4-6.3c1.5-1.1,0-3.6-1.5-2.5c-3.6,2.6-8.4,3.7-12.1,6.1c-0.6-1.8-1.1-3.7-2.6-5
				c0.4-0.3,0.8-0.5,1.2-0.8c0.1,0,0.2,0,0.4,0c5-1.5,9.5-4.1,14.2-6.2c1.9-0.9,0.3-3.6-1.7-2.8c-4,1.8-7.7,3.8-11.8,5.3
				c-1.4-0.2-2.5-0.3-3.9-0.5c1.6-0.9,3.3-1.6,5.1-2c1.9-0.4,1.1-3.2-0.8-2.8c-1.1,0.2-2.1,0.6-3.2,1c0.4-1.4,0.5-2.8,0.5-4.1H714
				c1.9,0,1.9-2.9,0-2.9h-12.5c-0.1-1.9,1.5-2.4,2.6-3c1.2,0,2.3,0.2,3.4,0.4c1.9,0.4,2.7-2.4,0.8-2.8c-1.2-0.3-2.4-0.4-3.6-0.5
				c-0.3-0.9,0-2,0.4-3.2c4.1,1,7.6,3.5,11.3,5.4c1.7,0.9,3.2-1.7,1.5-2.5c-3.9-2-7.5-4.4-11.6-5.5c0,0,0-0.1,0.1-0.1
				c1.5-2.9,3.8-3.4,7-1.8c8.6,4.5,17.2,9,26,13.1c3.2,1.5,6.8,2.8,10.3,2.9c23.4,0.8,46.9,1.3,70.3,1.7
				c11.2,0.2,11.2-0.1,12.8-10.6C840.1,847.7,868.7,854.3,875,859z M835.5,867.5c10.4-1.4,18.9-5.7,28-8.3c0-0.8-0.1-1.6-0.1-2.4
				c-7.4-1.8-14.9-3.7-22.3-5.4c-2.9-0.7-5.2,0.4-5.4,3.5C835.3,858.7,835.5,862.7,835.5,867.5z"/>
		</g>
		<g>
			<path class="st1" d="M1050,859c-14.5,4.8-28.3,9.3-42.5,14c-0.5-2.7-0.8-4.3-1.1-5.8c-0.2-1.3-0.5-2.6-0.8-4.2
				c-1.8-0.4-3.4-1-5-1c-13.9-0.1-27.9-0.1-41.8-0.1c-10.3,0-20.7,0.4-31-0.3c-8.9-0.6-16.4,1.5-23.4,6.8
				c-6.6,4.9-13.6,9.3-19.7,13.4c-2.2-0.6-3.4-1.6-4.3-2.8c3.5-2.7,8.8-3.8,12.4-6.3c1.5-1.1,0-3.6-1.5-2.5
				c-3.6,2.6-8.4,3.7-12.1,6.1c-0.6-1.8-1.1-3.7-2.6-5c0.4-0.3,0.8-0.5,1.2-0.8c0.1,0,0.2,0,0.4,0c5-1.5,9.5-4.1,14.2-6.2
				c1.9-0.9,0.3-3.6-1.7-2.8c-4,1.8-7.7,3.8-11.8,5.3c-1.4-0.2-2.5-0.3-3.9-0.5c1.6-0.9,3.3-1.6,5.1-2c1.9-0.4,1.1-3.2-0.8-2.8
				c-1.1,0.2-2.1,0.6-3.2,1c0.4-1.4,0.5-2.8,0.5-4.1H889c1.9,0,1.9-2.9,0-2.9h-12.5c-0.1-1.9,1.5-2.4,2.6-3c1.2,0,2.3,0.2,3.4,0.4
				c1.9,0.4,2.7-2.4,0.8-2.8c-1.2-0.3-2.4-0.4-3.6-0.5c-0.3-0.9,0-2,0.4-3.2c4.1,1,7.6,3.5,11.3,5.4c1.7,0.9,3.2-1.7,1.5-2.5
				c-3.9-2-7.5-4.4-11.6-5.5c0,0,0-0.1,0.1-0.1c1.5-2.9,3.8-3.4,7-1.8c8.6,4.5,17.2,9,26,13.1c3.2,1.5,6.8,2.8,10.3,2.9
				c23.4,0.8,46.9,1.3,70.3,1.7c11.2,0.2,11.2-0.1,12.8-10.6C1015.1,847.7,1043.7,854.3,1050,859z M1010.5,867.5
				c10.4-1.4,18.9-5.7,28-8.3c0-0.8-0.1-1.6-0.1-2.4c-7.4-1.8-14.9-3.7-22.3-5.4c-2.9-0.7-5.2,0.4-5.4,3.5
				C1010.3,858.7,1010.5,862.7,1010.5,867.5z"/>
		</g>
		<g>
			<path class="st1" d="M1225,859c-14.5,4.8-28.3,9.3-42.5,14c-0.5-2.7-0.8-4.3-1.1-5.8c-0.2-1.3-0.5-2.6-0.8-4.2
				c-1.8-0.4-3.4-1-5-1c-13.9-0.1-27.9-0.1-41.8-0.1c-10.3,0-20.7,0.4-31-0.3c-8.9-0.6-16.4,1.5-23.4,6.8
				c-6.6,4.9-13.6,9.3-19.7,13.4c-2.2-0.6-3.4-1.6-4.3-2.8c3.5-2.7,8.8-3.8,12.4-6.3c1.5-1.1,0-3.6-1.5-2.5
				c-3.6,2.6-8.4,3.7-12.1,6.1c-0.6-1.8-1.1-3.7-2.6-5c0.4-0.3,0.8-0.5,1.2-0.8c0.1,0,0.2,0,0.4,0c5-1.5,9.5-4.1,14.2-6.2
				c1.9-0.9,0.3-3.6-1.7-2.8c-4,1.8-7.7,3.8-11.8,5.3c-1.4-0.2-2.5-0.3-3.9-0.5c1.6-0.9,3.3-1.6,5.1-2c1.9-0.4,1.1-3.2-0.8-2.8
				c-1.1,0.2-2.1,0.6-3.2,1c0.4-1.4,0.5-2.8,0.5-4.1h12.3c1.9,0,1.9-2.9,0-2.9h-12.5c-0.1-1.9,1.5-2.4,2.6-3c1.2,0,2.3,0.2,3.4,0.4
				c1.9,0.4,2.7-2.4,0.8-2.8c-1.2-0.3-2.4-0.4-3.6-0.5c-0.3-0.9,0-2,0.4-3.2c4.1,1,7.6,3.5,11.3,5.4c1.7,0.9,3.2-1.7,1.5-2.5
				c-3.9-2-7.5-4.4-11.6-5.5c0,0,0-0.1,0.1-0.1c1.5-2.9,3.8-3.4,7-1.8c8.6,4.5,17.2,9,26,13.1c3.2,1.5,6.8,2.8,10.3,2.9
				c23.4,0.8,46.9,1.3,70.3,1.7c11.2,0.2,11.2-0.1,12.8-10.6C1190.1,847.7,1218.7,854.3,1225,859z M1185.5,867.5
				c10.4-1.4,18.9-5.7,28-8.3c0-0.8-0.1-1.6-0.1-2.4c-7.4-1.8-14.9-3.7-22.3-5.4c-2.9-0.7-5.2,0.4-5.4,3.5
				C1185.3,858.7,1185.5,862.7,1185.5,867.5z"/>
		</g>
		<g>
			<path class="st1" d="M1400,859c-14.5,4.8-28.3,9.3-42.5,14c-0.5-2.7-0.8-4.3-1.1-5.8c-0.2-1.3-0.5-2.6-0.8-4.2
				c-1.8-0.4-3.4-1-5-1c-13.9-0.1-27.9-0.1-41.8-0.1c-10.3,0-20.7,0.4-31-0.3c-8.9-0.6-16.4,1.5-23.4,6.8
				c-6.6,4.9-13.6,9.3-19.7,13.4c-2.2-0.6-3.4-1.6-4.3-2.8c3.5-2.7,8.8-3.8,12.4-6.3c1.5-1.1,0-3.6-1.5-2.5
				c-3.6,2.6-8.4,3.7-12.1,6.1c-0.6-1.8-1.1-3.7-2.6-5c0.4-0.3,0.8-0.5,1.2-0.8c0.1,0,0.2,0,0.4,0c5-1.5,9.5-4.1,14.2-6.2
				c1.9-0.9,0.3-3.6-1.7-2.8c-4,1.8-7.7,3.8-11.8,5.3c-1.4-0.2-2.5-0.3-3.9-0.5c1.6-0.9,3.3-1.6,5.1-2c1.9-0.4,1.1-3.2-0.8-2.8
				c-1.1,0.2-2.1,0.6-3.2,1c0.4-1.4,0.5-2.8,0.5-4.1h12.3c1.9,0,1.9-2.9,0-2.9h-12.5c-0.1-1.9,1.5-2.4,2.6-3c1.2,0,2.3,0.2,3.4,0.4
				c1.9,0.4,2.7-2.4,0.8-2.8c-1.2-0.3-2.4-0.4-3.6-0.5c-0.3-0.9,0-2,0.4-3.2c4.1,1,7.6,3.5,11.3,5.4c1.7,0.9,3.2-1.7,1.5-2.5
				c-3.9-2-7.5-4.4-11.6-5.5c0,0,0-0.1,0.1-0.1c1.5-2.9,3.8-3.4,7-1.8c8.6,4.5,17.2,9,26,13.1c3.2,1.5,6.8,2.8,10.3,2.9
				c23.4,0.8,46.9,1.3,70.3,1.7c11.2,0.2,11.2-0.1,12.8-10.6C1365.1,847.7,1393.7,854.3,1400,859z M1360.5,867.5
				c10.4-1.4,18.9-5.7,28-8.3c0-0.8-0.1-1.6-0.1-2.4c-7.4-1.8-14.9-3.7-22.3-5.4c-2.9-0.7-5.2,0.4-5.4,3.5
				C1360.3,858.7,1360.5,862.7,1360.5,867.5z"/>
		</g>
	</g>
</g>
</svg>
